<svg xmlns:xlink="http://www.w3.org/1999/xlink" xmlns="http://www.w3.org/2000/svg" width="300" height="78" viewBox="0 0 35520 9240"><g id="l2tnWyH2oMhPoKiO244nizt" fill="#3D0046"><g fill="#3D0046"><path id="pk7Shw7CQ" d="M23611 7330 c-46 -11 -65 -33 -65 -76 0 -27 7 -42 26 -59 25 -21 33 -22 135 -18 72 4 147 0 228 -12 221 -31 219 -31 243 0 50 63 15 117 -91 139 -155 34 -390 46 -476 26z" fill="#3D0046"></path><path id="p1D5XcU6Zh" d="M23002 7165 c-123 -59 -252 -140 -319 -200 -37 -32 -43 -43 -43 -76 0 -26 7 -44 22 -59 37 -34 75 -26 156 35 88 66 188 125 298 176 87 40 104 58 104 108 0 35 -39 71 -79 71 -14 0 -77 -25 -139 -55z" fill="#3D0046"></path><path id="pgI8Apx7m" d="M2780 7097 c0 -3 26 -58 58 -123 146 -296 258 -619 368 -1056 38 -152 41 -180 19 -198 -22 -18 -33 -5 -45 55 -13 63 -53 105 -100 105 -62 0 -185 -30 -220 -55 -20 -14 -46 -25 -57 -25 -38 0 -34 -17 5 -24 23 -3 49 -17 65 -34 l28 -29 -108 -6 c-80 -4 -155 -18 -291 -52 -101 -26 -186 -45 -188 -42 -3 3 -36 87 -74 187 -93 248 -112 266 -268 257 -52 -3 -96 -7 -98 -10 -3 -2 36 -113 86 -246 49 -133 90 -246 90 -251 0 -5 -12 -12 -27 -16 -57 -12 -64 -16 -61 -32 2 -9 20 -21 42 -27 22 -7 41 -16 43 -21 2 -6 -37 -117 -87 -249 -50 -131 -88 -240 -86 -242 9 -10 151 -24 175 -18 47 12 90 36 106 62 9 14 48 106 85 205 38 99 70 181 72 183 2 2 82 -16 178 -41 144 -37 197 -46 300 -51 l124 -6 -39 -33 c-23 -21 -49 -34 -66 -34 -42 0 -44 -17 -2 -23 20 -4 45 -15 57 -26 24 -22 142 -51 209 -51 60 0 84 21 103 88 24 89 21 84 44 72 27 -14 26 -38 -10 -185 -91 -382 -225 -770 -364 -1055 -33 -69 -62 -129 -65 -134 -2 -5 19 -6 50 -3 74 9 170 58 216 111 21 24 184 298 363 608 228 396 337 575 367 605 68 67 101 73 412 73 355 0 440 14 611 98 67 33 76 41 84 74 14 55 -10 83 -107 128 -146 68 -219 79 -587 88 -356 9 -354 8 -418 74 -27 28 -75 103 -172 273 -77 135 -221 385 -260 450 -26 44 -93 161 -150 260 -57 99 -115 195 -129 213 -29 40 -97 88 -148 106 -41 14 -133 30 -133 23z" fill="#3D0046"></path><path id="pYzCgpE4T" d="M24516 7069 c-20 -15 -26 -29 -26 -57 0 -44 3 -48 60 -92 94 -71 184 -156 256 -242 71 -83 78 -88 115 -88 50 0 79 27 79 75 0 26 -11 48 -46 92 -66 82 -207 220 -288 281 -76 58 -108 64 -150 31z" fill="#3D0046"></path><path id="p1ExXRYdhM" d="M22342 6567 c-47 -50 -126 -261 -151 -401 -18 -101 -14 -159 12 -184 29 -28 80 -29 107 -2 21 21 22 24 40 145 16 102 42 186 91 290 46 98 48 117 14 150 -32 33 -83 34 -113 2z" fill="#3D0046"></path><path id="pvhx6vx89" d="M25110 6290 c-27 -27 -25 -72 5 -151 28 -70 77 -255 95 -359 15 -81 30 -100 85 -100 55 0 78 24 77 83 -3 113 -106 478 -150 530 -21 24 -86 23 -112 -3z" fill="#3D0046"></path><path id="pXti3DVUb" d="M13463 5720 c-45 -18 -58 -90 -24 -127 17 -18 36 -22 118 -27 54 -3 163 -10 243 -16 205 -14 234 -13 253 8 23 25 22 94 0 114 -26 23 -43 26 -218 37 -288 18 -350 20 -372 11z" fill="#3D0046"></path><path id="pmiEzKA4I" d="M12870 5704 c-74 -7 -193 -22 -265 -34 -112 -18 -133 -25 -152 -46 -30 -33 -30 -78 2 -109 29 -30 31 -30 170 -6 61 11 164 24 230 31 170 16 184 19 206 41 38 38 16 120 -36 132 -11 2 -81 -1 -155 -9z" fill="#3D0046"></path><path id="phjLDLXA4" d="M6673 5640 c-144 -6 -176 -10 -192 -24 -41 -37 -34 -112 12 -133 14 -7 93 -7 222 -2 110 4 233 8 273 8 64 1 76 4 97 26 16 15 25 36 25 55 0 19 -9 40 -25 55 -23 24 -30 25 -132 23 -59 -1 -186 -4 -280 -8z" fill="#3D0046"></path><path id="pvMPRJB12" d="M7469 5629 c-29 -29 -23 -95 11 -120 22 -16 53 -18 304 -20 l279 -3 18 23 c22 27 25 79 6 105 -21 28 -88 35 -354 35 -232 1 -244 0 -264 -20z" fill="#3D0046"></path><path id="pnMpq7zOB" d="M14432 5607 c-14 -15 -22 -36 -22 -59 0 -48 32 -73 102 -82 29 -4 147 -25 262 -47 173 -33 214 -38 237 -29 52 22 62 105 15 135 -30 19 -475 105 -543 105 -18 0 -38 -9 -51 -23z" fill="#3D0046"></path><path id="pOlZYLg5Y" d="M22255 5605 c-16 -15 -25 -36 -25 -54 0 -77 147 -404 223 -496 32 -39 76 -47 114 -20 44 31 40 67 -21 173 -69 122 -119 231 -147 322 -13 43 -29 76 -42 85 -32 22 -74 18 -102 -10z" fill="#3D0046"></path><path id="p85q1MNEu" d="M8463 5598 c-28 -30 -30 -77 -5 -108 18 -22 32 -24 273 -41 323 -23 315 -23 339 1 28 28 27 90 -2 117 -19 17 -45 22 -163 32 -77 6 -203 14 -280 17 -139 6 -140 6 -162 -18z" fill="#3D0046"></path><path id="pVFYfwQ6t" d="M5975 5603 c-243 -18 -265 -26 -265 -95 0 -79 35 -88 259 -68 115 10 136 21 147 76 4 24 1 37 -18 57 -26 29 -50 35 -123 30z" fill="#3D0046"></path><path id="pRF47IWuw" d="M9457 5526 c-41 -42 -33 -109 16 -130 28 -12 472 -67 538 -66 59 0 91 80 51 130 -16 19 -40 25 -207 46 -291 36 -377 41 -398 20z" fill="#3D0046"></path><path id="p9SuaHyxW" d="M11956 5504 c-112 -39 -351 -143 -400 -174 -69 -44 -84 -110 -33 -145 36 -25 71 -17 184 39 59 29 164 75 233 101 142 55 170 74 170 119 -1 73 -56 95 -154 60z" fill="#3D0046"></path><path id="pcRqgj2vt" d="M15401 5404 c-12 -15 -21 -39 -21 -53 0 -29 29 -66 57 -74 10 -3 92 -24 183 -47 91 -23 195 -50 231 -61 36 -10 80 -19 96 -19 61 0 96 81 56 128 -18 21 -139 58 -390 121 -153 39 -185 40 -212 5z" fill="#3D0046"></path><path id="pXDtlNAlx" d="M10453 5398 c-50 -24 -50 -117 -1 -138 13 -5 97 -25 188 -45 91 -19 201 -44 244 -55 102 -26 122 -25 151 5 30 29 33 73 8 104 -20 24 -152 61 -401 112 -158 32 -158 32 -189 17z" fill="#3D0046"></path><path id="pjQhE6eHl" d="M25256 5317 c-18 -18 -24 -39 -30 -102 -8 -93 -39 -252 -67 -346 -25 -86 -25 -131 1 -154 28 -26 85 -25 111 2 38 38 119 403 119 536 0 37 -5 49 -26 66 -35 28 -79 27 -108 -2z" fill="#3D0046"></path><path id="ph3K3glgp" d="M16360 5140 c-26 -26 -27 -91 -2 -113 9 -8 103 -44 207 -80 105 -35 215 -74 245 -86 90 -35 130 -26 150 33 16 51 -4 84 -66 108 -167 65 -450 158 -479 158 -22 0 -43 -8 -55 -20z" fill="#3D0046"></path><path id="pIWcNJu9u" d="M11414 5138 c-24 -11 -44 -48 -44 -78 0 -35 44 -67 150 -111 58 -23 161 -71 229 -106 79 -40 136 -63 157 -63 40 0 74 29 74 64 0 60 -14 72 -167 149 -154 77 -342 157 -365 156 -7 0 -23 -5 -34 -11z" fill="#3D0046"></path><path id="pEQbST0l8" d="M33033 5095 c-69 -30 -95 -130 -50 -196 29 -43 60 -59 120 -59 130 0 177 182 64 250 -37 23 -89 25 -134 5z" fill="#3D0046"></path><path id="pvnaa3i78" d="M11058 4991 c-40 -32 -130 -118 -200 -190 -125 -128 -128 -131 -128 -175 0 -52 24 -76 77 -76 28 0 50 18 170 138 76 76 166 163 201 194 53 48 62 60 62 90 0 44 -34 78 -78 78 -23 0 -50 -15 -104 -59z" fill="#3D0046"></path><path id="p1FmC7gezi" d="M32561 4910 c-67 -27 -132 -56 -142 -66 -43 -39 -5 -134 53 -134 37 0 281 99 301 121 41 49 4 130 -59 128 -16 0 -85 -22 -153 -49z" fill="#3D0046"></path><path id="pMT0XsoCV" d="M17295 4795 c-31 -30 -34 -84 -7 -108 10 -10 57 -33 103 -53 46 -20 155 -67 242 -105 86 -38 165 -69 176 -69 10 0 30 9 45 21 20 16 26 29 26 58 0 64 10 58 -338 207 -95 41 -184 74 -198 74 -14 0 -36 -11 -49 -25z" fill="#3D0046"></path><path id="p172Vqyag7" d="M22782 4777 c-14 -15 -22 -36 -22 -59 0 -30 8 -43 58 -88 130 -119 373 -280 424 -280 57 0 96 69 68 120 -5 10 -49 42 -97 71 -91 55 -173 115 -281 206 -73 61 -113 69 -150 30z" fill="#3D0046"></path><path id="p1BPE0pOu5" d="M31760 4625 c-124 -41 -231 -75 -238 -75 -8 0 -27 -14 -44 -30 -25 -26 -29 -36 -24 -62 9 -47 33 -68 77 -68 21 0 48 4 61 9 13 5 123 42 246 82 205 66 224 74 238 101 28 54 -9 119 -68 118 -13 -1 -124 -34 -248 -75z" fill="#3D0046"></path><path id="pFVilj6rk" d="M12268 4645 c-31 -17 -46 -71 -29 -101 6 -11 68 -73 138 -139 70 -66 152 -150 181 -187 32 -39 64 -69 79 -73 58 -14 114 42 99 100 -8 31 -104 145 -205 244 -167 162 -208 187 -263 156z" fill="#3D0046"></path><path id="p16GcHWIvD" d="M33084 4652 c-6 -4 -24 -32 -41 -62 -16 -30 -54 -98 -83 -150 -29 -52 -64 -115 -77 -140 -13 -25 -28 -52 -34 -60 -5 -8 -42 -73 -81 -145 -39 -71 -82 -150 -95 -175 -14 -25 -36 -63 -49 -86 -33 -56 -60 -139 -75 -226 -27 -166 55 -377 195 -497 165 -142 415 -172 616 -73 92 45 200 149 246 237 38 71 64 181 64 265 0 133 -38 230 -213 540 -21 37 -31 55 -119 215 -31 55 -83 149 -117 209 -33 60 -61 113 -61 117 0 27 -51 48 -76 31z m127 -866 c67 -29 102 -66 103 -106 1 -27 0 -28 -12 -13 -30 42 -43 53 -66 53 -28 0 -32 -9 -46 -95 -5 -32 -12 -60 -15 -63 -3 -3 -21 -5 -39 -4 -21 2 -40 -4 -50 -13 -20 -21 -21 -84 -2 -91 8 -3 18 -20 22 -37 3 -18 12 -36 18 -40 8 -6 8 -10 -1 -14 -18 -7 -16 -32 2 -39 8 -4 23 0 32 7 13 11 15 11 9 1 -5 -8 -1 -21 9 -32 16 -18 15 -19 -20 -26 -82 -15 -190 25 -157 58 7 7 12 22 12 34 0 16 -6 22 -25 23 -14 1 -32 2 -40 3 -22 2 -95 84 -95 106 0 16 8 19 47 19 27 0 49 5 51 11 2 7 10 12 17 12 8 0 19 9 25 20 6 11 20 20 31 20 11 0 22 6 25 13 6 17 -23 87 -36 87 -6 0 -10 9 -10 19 0 11 -12 29 -26 40 l-27 21 54 24 c72 33 140 33 210 2z m-332 -142 c-18 -22 -22 -11 -7 22 10 21 14 24 16 10 2 -9 -2 -24 -9 -32z m487 -28 c1 0 5 -23 9 -51 l7 -50 -31 40 c-38 49 -41 80 -8 69 12 -3 23 -7 23 -8z m-91 -186 c4 -6 -12 -9 -42 -9 l-48 2 40 7 c22 4 41 8 42 9 1 0 5 -3 8 -9z" fill="#3D0046"></path><path id="pFNaAgsTZ" d="M18207 4398 c-26 -20 -38 -63 -26 -96 8 -24 33 -40 157 -102 361 -178 391 -188 427 -137 18 26 19 77 3 100 -19 24 -484 247 -517 247 -15 0 -35 -6 -44 -12z" fill="#3D0046"></path><path id="p1Bd6Gq4J3" d="M31018 4405 c-3 -3 -112 -32 -244 -65 -263 -67 -279 -74 -277 -137 1 -45 31 -73 77 -73 30 0 464 108 518 128 37 15 55 70 34 110 -8 16 -23 32 -31 36 -20 7 -70 8 -77 1z" fill="#3D0046"></path><path id="pTcywK5vk" d="M24949 4383 c-8 -10 -40 -56 -72 -103 -31 -47 -81 -114 -110 -150 -52 -63 -55 -65 -94 -62 -91 7 -131 -87 -65 -149 18 -17 32 -34 32 -38 0 -10 46 -31 69 -31 10 0 29 8 41 18 21 17 28 17 179 -5 245 -35 275 -31 295 34 8 26 -16 78 -42 91 -9 5 -66 15 -125 22 -60 7 -120 15 -133 19 l-24 6 28 35 c16 19 57 77 92 129 69 102 80 143 45 181 -24 26 -95 28 -116 3z" fill="#3D0046"></path><path id="p10Mk0pcZl" d="M10463 4278 c-25 -27 -89 -154 -137 -270 -101 -244 -100 -318 1 -318 45 0 67 18 79 65 15 61 77 213 135 329 32 66 59 130 59 143 0 62 -95 97 -137 51z" fill="#3D0046"></path><path id="p1Dd84hTBQ" d="M23632 4277 c-23 -25 -28 -66 -12 -96 11 -22 56 -41 215 -90 219 -69 327 -93 357 -82 59 22 74 104 25 135 -12 8 -92 33 -177 56 -85 23 -194 54 -241 71 -105 35 -138 37 -167 6z" fill="#3D0046"></path><path id="p13aqZsGev" d="M29860 4140 c-107 -20 -217 -40 -244 -44 -59 -9 -96 -42 -96 -86 0 -36 38 -80 70 -80 23 0 295 48 450 79 70 15 99 25 112 41 42 52 2 131 -64 129 -18 -1 -121 -18 -228 -39z" fill="#3D0046"></path><path id="pTR7Bs9V6" d="M29030 4008 c-36 -5 -152 -20 -257 -32 -218 -25 -233 -32 -233 -98 0 -26 7 -45 21 -59 20 -20 29 -21 108 -16 47 4 174 18 281 32 182 23 196 26 218 50 39 46 25 105 -29 124 -18 6 -35 10 -38 10 -3 -1 -35 -6 -71 -11z" fill="#3D0046"></path><path id="p1HQW2HeGS" d="M19095 3955 c-33 -32 -34 -84 -2 -112 32 -29 479 -233 511 -233 55 0 93 69 66 121 -8 14 -186 109 -206 109 -2 0 -70 32 -150 70 -81 39 -158 70 -171 70 -13 0 -35 -11 -48 -25z" fill="#3D0046"></path><path id="pQvkDSnDT" d="M25583 3918 c-45 -48 -12 -138 49 -138 13 0 102 -7 198 -15 280 -23 334 -23 359 -1 15 14 21 31 21 61 0 70 -10 74 -232 91 -401 30 -370 29 -395 2z" fill="#3D0046"></path><path id="paMjOuGAH" d="M27784 3896 c-201 -12 -217 -16 -235 -64 -14 -35 13 -90 48 -98 37 -10 509 14 551 27 17 6 37 19 42 29 16 31 12 78 -10 100 -23 23 -79 24 -396 6z" fill="#3D0046"></path><path id="p1366ZFUwe" d="M26571 3854 c-22 -28 -25 -44 -15 -82 13 -48 42 -52 337 -52 248 0 275 2 289 18 38 43 29 109 -18 131 -17 7 -117 11 -299 11 l-274 0 -20 -26z" fill="#3D0046"></path><path id="pJcA4tttJ" d="M12845 3851 c-24 -27 -16 -78 33 -221 22 -64 52 -169 65 -234 15 -67 33 -126 43 -137 26 -28 84 -26 114 6 20 22 22 31 17 82 -14 127 -116 462 -155 506 -22 24 -93 23 -117 -2z" fill="#3D0046"></path><path id="p9idQGznc" d="M24263 3657 c-72 -57 -351 -227 -374 -227 -24 0 -59 -50 -59 -85 0 -46 29 -75 76 -75 48 0 199 82 406 221 74 50 88 64 93 93 7 34 -6 73 -29 88 -23 16 -85 8 -113 -15z" fill="#3D0046"></path><path id="p18vNOKAY4" d="M20000 3550 c-25 -25 -26 -81 -2 -108 9 -11 60 -36 112 -57 185 -72 393 -145 415 -145 12 0 34 9 49 21 32 25 37 86 8 112 -10 9 -97 46 -193 81 -96 35 -203 75 -238 90 -78 31 -124 33 -151 6z" fill="#3D0046"></path><path id="p1Cnx89HxB" d="M10201 3339 l-34 -20 6 -172 c6 -182 33 -345 66 -402 14 -25 24 -30 62 -33 35 -2 49 2 63 17 24 27 24 55 -3 171 -16 65 -24 143 -28 250 -6 152 -6 155 -34 182 -33 33 -53 35 -98 7z" fill="#3D0046"></path><path id="pQ8uYnS8o" d="M20963 3250 c-44 -18 -59 -94 -24 -129 26 -26 463 -131 547 -131 46 0 74 29 74 78 0 57 -21 70 -161 98 -68 14 -187 40 -263 59 -154 39 -143 37 -173 25z" fill="#3D0046"></path><path id="p10WZ8eXA9" d="M23340 3209 c-52 -16 -166 -45 -253 -63 -97 -21 -166 -41 -178 -52 -26 -24 -26 -87 1 -114 12 -12 33 -20 53 -20 84 0 505 107 539 137 39 35 29 110 -18 132 -32 14 -32 14 -144 -20z" fill="#3D0046"></path><path id="pxeEteTR9" d="M21922 3065 c-19 -14 -23 -24 -20 -62 2 -36 9 -50 30 -66 24 -18 47 -20 296 -25 l270 -5 26 26 c34 34 35 79 1 112 -24 25 -27 25 -192 25 -92 0 -217 3 -278 6 -94 5 -113 3 -133 -11z" fill="#3D0046"></path><path id="p6y846wmY" d="M13003 2878 c-15 -17 -24 -49 -33 -117 -13 -99 -53 -256 -91 -356 -26 -70 -21 -106 16 -131 33 -22 90 -11 111 20 43 67 114 333 130 488 6 62 5 68 -19 92 -34 34 -85 35 -114 4z" fill="#3D0046"></path><path id="pbEQjS8LT" d="M10471 2403 c-12 -10 -24 -34 -27 -53 -5 -31 1 -44 54 -115 74 -101 167 -201 254 -276 58 -50 74 -59 108 -59 30 0 43 6 59 26 39 50 31 66 -102 197 -68 67 -151 159 -185 203 -33 45 -68 84 -77 88 -29 11 -62 6 -84 -11z" fill="#3D0046"></path><path id="p14rHYU0hH" d="M12565 1953 c-81 -72 -232 -168 -298 -191 -67 -23 -97 -53 -97 -95 0 -51 37 -81 90 -74 91 12 302 134 419 243 55 50 61 60 61 95 0 50 -27 79 -74 79 -27 0 -48 -12 -101 -57z" fill="#3D0046"></path><path id="p2A2u88MY" d="M11226 1776 c-33 -32 -34 -79 -3 -110 47 -47 322 -127 487 -142 75 -6 79 -5 104 19 31 31 34 75 8 107 -15 19 -40 26 -148 42 -82 13 -170 34 -244 60 -157 54 -173 56 -204 24z" fill="#3D0046"></path></g></g></svg>
