<?xml version="1.0" encoding="UTF-8"?>
<svg xmlns="http://www.w3.org/2000/svg" xmlns:xlink="http://www.w3.org/1999/xlink" width="24px" height="15px" viewBox="0 0 24 15" version="1.1">
<g id="surface1">
<path style=" stroke:none;fill-rule:nonzero;fill:rgb(0%,13.72549%,58.431373%);fill-opacity:1;" d="M 0 0 L 0 15 L 7.988281 15 L 7.988281 0 Z M 0 0 "/>
<path style=" stroke:none;fill-rule:nonzero;fill:rgb(32.941176%,41.960784%,72.156863%);fill-opacity:1;" d="M 7.988281 0 L 7.988281 15 C 8.027344 14.910156 8.007812 14.78125 8.007812 14.683594 L 8.007812 0.351562 C 8.007812 0.242188 8.03125 0.101562 7.988281 0 Z M 7.988281 0 "/>
<path style=" stroke:none;fill-rule:nonzero;fill:rgb(100%,100%,100%);fill-opacity:1;" d="M 8.007812 0 L 8.007812 15 L 15.992188 15 L 15.992188 0 Z M 8.007812 0 "/>
<path style=" stroke:none;fill-rule:nonzero;fill:rgb(95.294118%,43.921569%,48.235294%);fill-opacity:1;" d="M 15.992188 0 L 15.992188 15 C 16.035156 14.910156 16.011719 14.78125 16.011719 14.683594 L 16.011719 0.351562 C 16.011719 0.242188 16.039062 0.101562 15.992188 0 Z M 15.992188 0 "/>
<path style=" stroke:none;fill-rule:nonzero;fill:rgb(92.941176%,16.078431%,22.352941%);fill-opacity:1;" d="M 16.011719 0 L 16.011719 15 L 24 15 L 24 0 Z M 16.011719 0 "/>
</g>
</svg>
