<svg xmlns:xlink="http://www.w3.org/1999/xlink" xmlns="http://www.w3.org/2000/svg" width="239.81220657276995" height="40" viewBox="0 0 38310 6390"><g id="lH6kWlxmU3KmYhkyvM54xW" fill="rgb(0,0,0)" style="transform: none;"><g><path id="pNgLvN67D" d="M2199 6280 c-45 -13 -64 -27 -84 -67 -11 -21 -23 -40 -26 -43 -4 -3 -15 -23 -27 -45 -18 -37 -44 -85 -111 -207 -14 -25 -89 -160 -165 -300 -77 -139 -142 -255 -146 -258 -3 -3 -14 -25 -25 -49 -11 -24 -24 -49 -30 -55 -5 -6 -21 -33 -35 -60 -30 -59 -68 -128 -115 -211 -19 -33 -42 -76 -51 -95 -9 -19 -19 -37 -23 -40 -6 -5 -32 -52 -83 -150 -13 -25 -25 -47 -28 -50 -3 -3 -104 -185 -225 -405 -120 -220 -221 -402 -225 -405 -3 -3 -14 -25 -25 -49 -11 -24 -24 -49 -30 -55 -5 -6 -21 -33 -35 -60 -61 -120 -73 -141 -80 -146 -4 -3 -15 -21 -24 -40 -9 -19 -32 -62 -51 -95 -19 -33 -46 -81 -59 -107 -12 -26 -28 -53 -33 -60 -18 -21 -129 -249 -149 -303 -10 -27 -24 -61 -31 -75 -7 -14 -13 -30 -13 -37 0 -6 -11 -44 -24 -83 -14 -40 -32 -118 -42 -174 -9 -56 -21 -112 -28 -125 -15 -33 -16 -542 0 -562 6 -8 15 -41 19 -74 3 -33 11 -80 17 -105 16 -68 69 -244 78 -255 4 -5 13 -28 20 -50 14 -45 138 -297 150 -305 4 -3 15 -21 25 -40 10 -19 39 -62 64 -95 25 -33 55 -73 66 -90 36 -57 270 -281 375 -358 58 -42 114 -84 125 -92 10 -8 23 -15 28 -15 5 0 22 -9 37 -20 99 -70 351 -177 500 -211 47 -11 92 -24 102 -29 36 -20 266 -41 443 -41 177 0 407 21 443 41 10 5 55 18 102 29 149 34 401 141 500 211 15 11 32 20 37 20 5 0 18 7 28 15 11 8 67 50 125 92 105 77 339 301 375 358 11 17 41 57 66 90 25 33 54 76 64 95 10 19 21 37 25 40 12 8 136 260 150 305 7 22 16 45 20 50 9 11 62 187 78 255 6 25 14 72 17 105 4 33 13 66 19 74 16 20 15 529 0 562 -7 13 -19 69 -28 125 -10 56 -28 134 -42 174 -13 39 -24 76 -24 82 0 5 -7 24 -15 41 -8 18 -24 57 -35 87 -23 58 -60 135 -115 235 -18 33 -44 83 -59 110 -14 28 -39 73 -56 100 -16 28 -39 70 -51 95 -12 25 -25 47 -29 50 -7 5 -19 27 -80 146 -14 27 -30 54 -35 60 -6 6 -19 31 -30 55 -11 24 -22 46 -25 49 -7 5 -390 699 -423 765 -11 22 -23 42 -26 45 -6 5 -33 53 -83 150 -13 25 -26 47 -29 50 -4 3 -14 21 -23 40 -9 19 -32 62 -51 95 -47 83 -85 152 -115 211 -14 27 -30 54 -35 60 -6 6 -19 31 -30 55 -11 24 -22 46 -25 49 -4 3 -69 119 -146 258 -76 140 -151 275 -165 300 -67 122 -93 170 -111 207 -12 22 -23 42 -27 45 -3 3 -15 22 -26 43 -28 53 -84 81 -136 67z m215 -3100 c38 -6 74 -14 80 -19 6 -4 34 -14 61 -21 67 -17 167 -65 239 -115 32 -22 69 -47 81 -55 42 -28 173 -168 214 -229 41 -60 101 -171 101 -187 0 -5 7 -22 15 -38 21 -39 40 -120 61 -254 15 -98 16 -125 5 -195 -21 -138 -15 -130 -68 -94 -82 58 -98 67 -120 67 -38 0 -53 -11 -53 -40 0 -45 -149 -216 -150 -172 0 4 28 62 62 129 41 79 69 124 82 127 11 3 49 2 85 -1 l65 -6 -18 29 c-10 16 -26 38 -36 49 -10 11 -19 26 -21 33 -2 7 -35 44 -73 82 -63 63 -69 72 -59 92 7 13 14 47 18 75 5 46 2 58 -21 93 -15 22 -31 40 -35 40 -5 0 -9 14 -9 30 0 23 -6 33 -25 40 -14 5 -28 18 -32 27 -3 10 -31 44 -62 76 -55 56 -56 57 -113 57 l-58 0 0 -37 c0 -21 -9 -53 -20 -71 -12 -19 -20 -50 -20 -74 0 -29 -7 -49 -22 -65 l-22 -24 28 -50 c26 -48 27 -51 11 -75 -52 -80 -67 -119 -61 -166 l5 -48 -39 -6 c-22 -4 -45 -13 -51 -20 -13 -16 -70 -19 -85 -5 -5 5 -38 11 -74 15 l-66 6 -39 -47 c-70 -82 -67 -76 -54 -145 9 -47 10 -63 1 -66 -7 -2 -12 -9 -12 -15 0 -14 50 -67 64 -67 23 0 56 -44 56 -76 0 -27 5 -34 31 -43 18 -6 46 -11 63 -11 17 0 49 -7 71 -15 22 -8 57 -14 78 -15 33 0 37 3 37 24 0 29 7 34 75 58 65 23 82 22 88 -2 7 -26 37 -26 67 0 30 26 124 28 152 3 20 -18 24 -63 6 -81 -7 -7 -35 -12 -63 -12 -56 0 -75 -12 -75 -46 0 -13 -4 -25 -10 -29 -12 -8 -50 31 -50 51 0 14 -3 14 -15 4 -8 -7 -15 -25 -15 -41 0 -36 -53 -79 -98 -79 -30 0 -31 1 -20 31 7 20 21 34 39 41 47 16 35 70 -14 67 -7 0 -2 -4 11 -9 12 -5 22 -16 22 -25 0 -8 -10 -19 -22 -24 -13 -5 -36 -21 -52 -36 -24 -23 -33 -25 -48 -16 -10 6 -28 11 -40 11 -24 1 -78 61 -78 87 0 11 -14 13 -57 11 l-58 -3 -3 -42 c-3 -38 -1 -43 23 -49 14 -3 41 -3 61 0 l35 7 -3 -48 c-3 -48 -3 -48 30 -51 17 -2 32 -8 32 -14 0 -27 34 -48 77 -48 42 0 43 -1 43 -31 0 -30 -2 -31 -30 -25 -25 4 -30 2 -30 -13 0 -11 -9 -21 -22 -24 -17 -5 -19 -9 -9 -20 6 -8 25 -20 41 -27 16 -7 35 -25 42 -40 7 -16 28 -36 48 -46 l35 -17 -85 -28 c-203 -67 -419 -66 -640 1 -41 13 -81 28 -87 33 -18 13 -16 37 2 37 8 0 15 5 15 10 0 6 -11 10 -24 10 -13 0 -29 7 -36 15 -10 12 -24 14 -55 9 -26 -3 -51 -1 -64 6 -25 13 -19 30 11 30 17 0 19 4 14 25 -8 33 13 41 53 20 l31 -16 0 29 c0 16 9 37 20 47 32 29 25 45 -20 45 -22 0 -40 5 -40 10 0 6 -9 10 -20 10 -11 0 -20 -4 -20 -9 0 -5 -9 -13 -20 -16 -23 -7 -53 11 -47 29 5 15 -31 53 -83 89 -57 38 -110 95 -110 116 0 9 -15 25 -32 35 -59 34 -78 57 -78 94 0 29 -2 33 -15 22 -8 -7 -15 -21 -15 -31 0 -20 -16 -24 -38 -10 -14 9 -56 197 -47 211 4 6 12 10 20 10 12 0 19 22 28 90 3 20 99 39 105 20 11 -33 44 -52 80 -46 20 3 40 12 44 21 10 17 88 22 88 5 0 -20 31 4 46 36 14 30 21 34 55 34 43 0 59 18 59 67 0 25 7 32 43 48 23 10 66 21 95 23 34 3 57 10 65 22 7 9 22 22 35 29 21 11 21 14 8 40 -8 15 -21 33 -29 40 -9 7 -18 40 -22 82 -9 84 -29 109 -86 109 -43 0 -55 20 -45 75 5 27 1 40 -28 78 -18 24 -37 54 -41 66 -3 11 -14 21 -23 21 -9 0 -26 7 -36 15 -11 8 -30 15 -43 15 -23 0 -32 23 -13 35 6 3 7 17 4 30 -5 20 3 29 53 62 73 49 173 96 238 113 28 7 55 17 61 22 33 25 329 36 458 18z m-950 -467 c-6 -140 -8 -150 -32 -175 -13 -15 -38 -30 -53 -33 -16 -4 -29 -13 -29 -22 0 -8 -20 -41 -45 -73 -42 -55 -45 -61 -38 -105 4 -36 13 -52 35 -68 26 -19 29 -26 23 -57 -8 -41 -19 -50 -64 -50 -23 0 -39 -7 -53 -25 -43 -55 -49 4 -19 187 21 122 38 196 50 213 4 6 16 33 26 60 32 87 171 295 197 295 5 0 6 -64 2 -147z m1776 -827 c0 -26 -12 -46 -28 -46 -25 0 -82 -43 -82 -62 0 -12 -8 -18 -25 -18 -22 0 -25 4 -25 34 0 32 4 36 68 70 74 39 92 43 92 22z m-80 -206 c0 -26 -98 -172 -111 -165 -11 7 -12 75 -1 75 5 0 16 6 26 13 18 13 18 15 1 40 -17 27 -17 27 6 27 13 0 31 5 39 10 19 13 40 13 40 0z m-220 -55 c0 -8 -9 -19 -19 -25 -11 -5 -21 -20 -23 -32 -3 -21 -8 -23 -48 -20 -57 5 -70 16 -70 58 l0 34 80 0 c64 0 80 -3 80 -15z m-1537 -12 c12 -20 11 -106 0 -110 -7 -3 -13 1 -13 8 0 7 -6 20 -14 28 -7 9 -18 31 -24 49 -11 31 -10 32 18 32 16 0 31 -3 33 -7z m65 -48 c-1 -19 -7 -36 -16 -40 -21 -8 -28 0 -30 39 -2 32 0 36 22 36 22 0 25 -4 24 -35z m40 -135 c12 -16 34 -33 47 -36 19 -5 25 -13 25 -35 0 -16 -4 -29 -8 -29 -16 0 -112 99 -112 114 0 26 25 18 48 -14z m1161 -46 c22 -37 28 -84 11 -84 -19 0 -10 -28 15 -44 29 -19 32 -31 9 -40 -9 -3 -34 7 -60 25 -42 28 -44 32 -44 78 0 40 -3 50 -20 54 -12 3 -20 14 -20 26 0 18 6 21 44 21 40 0 46 -3 65 -36z"></path><path id="pizoLRsop" d="M3027 2683 c-13 -12 -7 -45 14 -74 19 -28 20 -31 5 -48 -25 -27 -19 -41 17 -41 25 0 36 -6 49 -30 17 -30 45 -43 35 -16 -3 8 -9 32 -13 53 -7 39 -29 87 -52 111 -6 8 -17 22 -22 33 -11 20 -22 24 -33 12z"></path><path id="pWn1ZQSJ" d="M1772 1509 c-13 -5 -21 -13 -17 -19 7 -11 55 8 55 22 0 10 -8 9 -38 -3z"></path><path id="pXgOCBm0z" d="M2330 1445 c0 -8 7 -15 15 -15 25 0 17 -36 -11 -50 -24 -13 -24 -15 -8 -27 15 -11 20 -8 36 29 11 24 24 46 31 50 9 6 8 10 -3 18 -23 15 -60 12 -60 -5z"></path><path id="p6YstfkNG" d="M2250 1432 c0 -12 34 -42 48 -42 23 0 12 31 -14 40 -31 12 -34 12 -34 2z"></path><path id="pGFSTMXYw" d="M10545 5505 c-302 -53 -488 -193 -582 -435 -72 -184 -73 -204 -73 -1169 l0 -859 -127 -4 c-148 -4 -175 -15 -213 -93 -48 -100 -47 -404 2 -503 13 -26 38 -57 57 -69 31 -21 46 -23 155 -23 l122 0 47 -287 c27 -159 55 -307 63 -329 22 -62 74 -108 147 -130 87 -27 402 -27 490 0 73 21 125 67 137 121 5 22 10 172 10 333 l0 292 201 0 c220 0 251 6 288 59 41 57 53 131 49 309 -3 159 -4 170 -31 222 -46 94 -49 95 -295 98 l-213 3 3 827 c3 787 4 829 22 865 30 61 81 82 196 81 73 -1 108 -6 150 -22 99 -39 130 -28 168 61 30 69 82 318 82 390 0 72 -39 116 -155 174 -175 89 -480 127 -700 88z"></path><path id="pDb4CWosU" d="M12498 5505 c-270 -45 -452 -170 -553 -380 -57 -117 -83 -224 -96 -388 -6 -84 -9 -762 -7 -1882 3 -1680 4 -1751 21 -1780 24 -39 71 -72 134 -93 72 -24 494 -24 573 0 59 18 112 53 139 90 15 21 16 177 21 1813 l5 1790 25 50 c36 72 77 90 200 89 73 -1 107 -6 148 -22 95 -39 127 -28 163 56 49 113 97 382 79 438 -53 160 -507 277 -852 219z"></path><path id="pJjs92db6" d="M14155 5504 c-107 -17 -221 -53 -292 -94 -117 -67 -229 -202 -288 -349 -53 -131 -69 -222 -70 -406 0 -306 59 -488 225 -682 99 -117 236 -208 415 -277 250 -96 487 -136 894 -152 l183 -7 -4 -146 c-3 -135 -6 -151 -32 -209 -18 -39 -43 -74 -66 -92 -176 -140 -570 -132 -990 20 -152 55 -218 73 -245 66 -74 -19 -158 -180 -200 -382 -22 -106 -10 -148 56 -208 131 -118 397 -211 745 -262 171 -25 517 -25 679 0 303 47 526 146 684 305 83 84 136 166 180 281 65 168 63 141 71 1085 8 893 9 927 54 1165 23 121 21 151 -11 182 -35 32 -52 41 -132 67 -126 41 -277 64 -431 65 -137 1 -147 0 -178 -23 -45 -31 -76 -106 -107 -254 -14 -67 -27 -122 -28 -123 -1 -2 -37 37 -79 86 -160 183 -372 305 -595 345 -108 18 -315 18 -438 -1z m621 -685 c32 -5 97 -29 144 -52 104 -51 209 -150 263 -248 l37 -66 0 -172 0 -172 -112 6 c-397 23 -615 111 -699 281 -29 59 -33 76 -33 153 -1 75 3 94 27 143 15 31 42 67 61 81 67 51 185 69 312 46z"></path><path id="pL8GVpo7k" d="M17410 5509 c-180 -22 -427 -93 -538 -156 -196 -109 -229 -220 -127 -424 66 -131 161 -241 225 -260 40 -12 44 -11 245 74 169 72 262 91 414 84 228 -10 340 -92 341 -249 0 -71 -10 -96 -55 -147 -52 -57 -113 -93 -302 -177 -404 -180 -529 -255 -651 -390 -69 -76 -149 -225 -177 -329 -25 -92 -31 -347 -11 -461 33 -194 112 -348 243 -477 108 -106 231 -179 388 -230 157 -51 234 -62 450 -61 228 0 380 19 540 66 230 68 345 158 345 272 0 54 -39 177 -88 276 -56 113 -123 190 -167 190 -15 0 -80 -21 -143 -46 -139 -55 -230 -73 -377 -74 -187 0 -276 39 -320 139 -31 71 -11 188 43 244 47 50 131 93 347 180 356 143 471 210 600 350 47 50 80 99 115 171 59 120 76 183 91 333 31 317 -79 632 -288 823 -146 134 -339 226 -553 267 -100 19 -474 27 -590 12z"></path><path id="pLgCVTtbX" d="M26830 5505 c-337 -44 -598 -167 -795 -376 -195 -206 -311 -465 -372 -834 -26 -157 -26 -621 0 -780 87 -527 311 -872 692 -1062 233 -117 562 -170 891 -144 377 29 635 132 858 340 311 293 464 806 426 1429 -48 773 -395 1253 -1010 1398 -180 42 -489 56 -690 29z m370 -685 c208 -39 339 -207 400 -515 28 -137 39 -484 21 -655 -22 -212 -91 -408 -179 -510 -81 -95 -211 -150 -354 -150 -199 1 -343 92 -432 274 -84 170 -111 326 -111 646 0 318 27 474 110 645 88 183 224 271 426 274 37 1 90 -4 119 -9z"></path><path id="pQTjltMuC" d="M29928 5505 c-270 -45 -452 -170 -553 -380 -55 -113 -82 -221 -95 -372 -5 -65 -10 -477 -10 -915 l0 -796 -129 -4 -130 -3 -35 -34 c-59 -57 -71 -110 -71 -306 0 -197 9 -239 65 -299 l39 -41 130 -3 c125 -3 131 -5 136 -25 3 -12 25 -146 51 -297 25 -151 53 -293 63 -315 24 -54 70 -91 139 -112 46 -14 95 -17 247 -17 254 0 328 22 369 108 14 29 16 78 16 344 l0 311 221 3 220 3 39 41 c56 60 65 102 65 299 0 194 -13 250 -72 307 l-34 33 -220 3 -220 3 3 817 3 817 25 50 c36 72 77 90 200 89 73 -1 107 -6 148 -22 95 -39 127 -28 163 56 49 113 97 382 79 438 -53 160 -507 277 -852 219z"></path><path id="p35KooQW9" d="M31975 5505 c-328 -56 -531 -239 -610 -550 -39 -152 -45 -306 -45 -1147 l0 -766 -124 -4 c-108 -3 -128 -6 -153 -24 -70 -52 -99 -175 -90 -374 8 -160 36 -235 102 -273 11 -7 76 -14 144 -17 l125 -5 53 -310 c60 -352 66 -368 157 -413 70 -35 240 -49 410 -35 182 15 247 53 267 154 4 24 8 171 9 327 l0 282 199 0 c110 0 211 4 224 9 35 13 66 48 91 101 19 41 21 62 21 225 0 208 -8 248 -65 309 l-39 41 -215 3 -216 3 2 827 c3 804 4 828 23 867 30 60 78 80 190 80 70 0 104 -5 151 -23 88 -33 123 -28 151 24 30 53 78 240 94 357 11 83 10 96 -6 126 -33 65 -102 110 -240 158 -174 60 -420 79 -610 48z"></path><path id="pFsVno3wQ" d="M34350 5505 c-576 -72 -941 -340 -1131 -833 -86 -224 -120 -443 -120 -767 1 -384 56 -666 178 -913 186 -379 503 -595 988 -673 108 -18 457 -18 555 0 450 81 749 350 910 817 88 254 135 631 94 751 -33 96 -151 235 -236 279 l-47 24 -771 0 -770 0 0 43 c1 126 56 299 121 384 130 167 442 248 769 199 107 -17 217 -53 376 -125 214 -96 244 -100 308 -41 74 68 186 318 186 414 0 165 -400 366 -876 440 -122 19 -382 20 -534 1z m647 -1997 c-18 -290 -147 -466 -371 -507 -113 -21 -259 -5 -359 38 -169 74 -277 273 -277 514 l0 57 507 0 506 0 -6 -102z"></path><path id="pzgrAD5gx" d="M5980 5484 c-187 -23 -259 -73 -238 -166 13 -62 1328 -3898 1350 -3941 41 -82 152 -106 480 -107 308 0 418 21 471 92 11 14 318 898 684 1965 489 1429 666 1954 670 2000 5 59 4 63 -24 92 -50 50 -114 63 -335 68 -308 8 -453 -16 -502 -84 -11 -14 -76 -202 -146 -417 l-126 -391 -702 -3 -701 -2 -131 399 c-170 521 -140 492 -500 496 -118 2 -231 1 -250 -1z m2048 -1616 c-28 -74 -373 -1156 -392 -1225 -13 -51 -30 -127 -37 -169 -11 -68 -28 -99 -45 -81 -3 2 -21 76 -41 163 -23 105 -99 354 -224 735 -104 316 -189 578 -189 582 0 4 210 7 466 7 369 0 465 -3 462 -12z"></path><path id="p1DqnDoAG0" d="M21813 5475 c-80 -14 -138 -43 -168 -83 -20 -27 -20 -45 -23 -1679 l-2 -1653 -498 0 c-554 0 -542 1 -589 -69 -41 -61 -47 -105 -48 -316 0 -161 3 -211 17 -255 23 -75 65 -116 131 -130 36 -7 489 -10 1477 -8 1331 3 1427 4 1457 20 85 47 106 132 100 397 -2 115 -9 212 -16 235 -7 21 -30 57 -51 80 l-39 41 -510 3 -511 3 -2 1642 -3 1643 -27 41 c-33 51 -91 78 -192 92 -105 15 -414 12 -503 -4z"></path><path id="p6NMwm5pL" d="M23935 5479 c-33 -5 -79 -16 -102 -24 -45 -18 -100 -72 -108 -108 -2 -12 -6 -530 -8 -1152 -4 -1163 -6 -1227 -46 -1476 -14 -82 -14 -185 -1 -209 13 -25 84 -66 146 -85 139 -42 513 -85 582 -66 71 20 101 85 156 339 13 63 26 116 29 118 2 2 9 -15 16 -38 31 -105 119 -235 216 -320 153 -133 328 -185 489 -143 72 19 100 39 126 92 30 60 35 157 16 312 -30 248 -72 394 -130 456 -28 29 -40 35 -75 35 -23 0 -69 -12 -104 -26 -89 -38 -202 -44 -294 -16 -76 24 -165 82 -206 136 l-27 35 0 978 c0 673 -4 990 -11 1018 -32 117 -142 155 -439 153 -91 0 -192 -4 -225 -9z"></path><path id="pbaNV8Kig" d="M36705 5479 c-130 -19 -196 -65 -214 -151 -7 -33 -11 -412 -11 -1136 0 -1100 -4 -1257 -40 -1462 -17 -95 -15 -196 4 -225 44 -68 226 -116 553 -146 219 -20 242 -2 302 242 17 69 34 147 37 173 4 25 9 44 12 41 3 -2 18 -37 34 -77 120 -297 431 -490 686 -424 81 20 106 39 134 101 19 42 22 66 21 155 -1 249 -78 563 -151 621 -34 26 -94 24 -167 -7 -88 -37 -201 -43 -293 -15 -75 23 -174 88 -210 139 l-22 29 -2 999 c-3 1111 2 1034 -70 1087 -45 33 -81 45 -163 57 -83 12 -355 11 -440 -1z"></path></g></g></svg>
