<svg xmlns:xlink="http://www.w3.org/1999/xlink" xmlns="http://www.w3.org/2000/svg" width="18" height="18" viewBox="0 0 5120 4700"><path id="phZEgK8AW" d="M488 4224 c-60 -32 -58 3 -58 -891 0 -550 4 -831 11 -857 13 -46 76 -118 124 -141 19 -9 35 -22 35 -30 0 -13 -39 -15 -255 -15 -255 0 -256 0 -279 -23 -68 -68 -74 -307 -11 -403 26 -40 73 -46 327 -42 271 3 280 6 306 89 7 24 16 50 18 58 2 8 6 12 9 9 2 -2 76 -204 165 -448 174 -483 195 -526 283 -587 98 -66 21 -63 1397 -63 1376 0 1299 -3 1397 63 89 62 107 99 283 587 90 248 166 448 169 445 3 -4 12 -29 21 -57 27 -91 33 -92 308 -96 254 -4 301 2 327 42 63 96 57 335 -11 403 -23 23 -24 23 -279 23 -216 0 -255 2 -255 15 0 8 16 21 35 30 48 23 111 95 124 141 7 26 11 307 11 857 0 898 3 860 -60 892 -43 22 -637 22 -680 0 -57 -30 -60 -45 -60 -365 l0 -290 -1330 0 -1330 0 0 290 c0 320 -3 335 -60 365 -43 22 -641 22 -682 -1z m1060 -1220 c102 -42 147 -165 97 -264 -18 -34 -64 -77 -98 -89 -45 -17 -599 -15 -640 3 -143 61 -145 283 -3 347 37 17 69 19 324 19 233 0 289 -3 320 -16z m2668 -3 c142 -64 140 -286 -3 -347 -41 -18 -595 -20 -640 -3 -34 12 -80 55 -98 89 -35 69 -20 172 32 222 57 55 74 57 383 57 257 1 289 -1 326 -18z m-140 -708 c-4 -10 -86 -238 -184 -508 l-177 -490 -1155 -2 -1155 -3 -179 498 c-98 273 -181 503 -184 510 -3 9 304 12 1518 12 1444 0 1521 -1 1516 -17z"></path></svg>
