<?xml version="1.0" encoding="utf-8"?>
<!DOCTYPE svg PUBLIC "-//W3C//DTD SVG 1.0//EN" "http://www.w3.org/TR/2001/REC-SVG-20010904/DTD/svg10.dtd">
<svg version="1.0" xmlns="http://www.w3.org/2000/svg" width="24px" height="24px" viewBox="0 0 24 24" preserveAspectRatio="xMidYMid meet">
 <g fill="#000000">
  <path d="M1.88 20.39 c-0.14 -0.02 -0.34 -0.06 -0.44 -0.09 l-0.18 -0.06 3.60 -3.60 3.60 -3.60 1.15 1.14 c0.79 0.78 1.21 1.17 1.36 1.24 0.51 0.24 1.07 0.30 1.56 0.17 0.56 -0.15 0.66 -0.22 1.86 -1.42 l1.15 -1.14 3.60 3.60 3.60 3.60 -0.25 0.09 c-0.24 0.08 -0.68 0.08 -10.31 0.09 -5.53 0 -10.17 -0.01 -10.31 -0.03z"/>
  <path d="M0.11 18.88 c-0.08 -0.29 -0.09 -0.53 -0.09 -6.90 0 -6.35 0 -6.62 0.09 -6.88 0.05 -0.15 0.10 -0.27 0.12 -0.27 0.01 0 1.64 1.61 3.61 3.59 l3.59 3.59 -3.59 3.59 c-1.97 1.97 -3.60 3.59 -3.61 3.59 -0.01 0 -0.07 -0.13 -0.12 -0.29z"/>
  <path d="M20.16 15.59 l-3.59 -3.59 3.59 -3.59 c1.97 -1.97 3.60 -3.59 3.61 -3.59 0.01 0 0.07 0.12 0.12 0.27 0.08 0.26 0.09 0.52 0.09 6.90 0 6.38 -0 6.64 -0.09 6.90 -0.05 0.15 -0.10 0.27 -0.12 0.27 -0.01 0 -1.64 -1.61 -3.61 -3.59z"/>
  <path d="M11.70 14.14 c-0.08 -0.04 -2.46 -2.39 -5.29 -5.22 l-5.15 -5.16 0.28 -0.09 c0.26 -0.08 0.73 -0.08 10.47 -0.08 9.74 0 10.21 0 10.47 0.08 l0.28 0.09 -5.15 5.16 c-3.01 3.01 -5.21 5.18 -5.30 5.22 -0.19 0.08 -0.42 0.08 -0.60 0z"/>
 </g>
</svg>