<?xml version="1.0" encoding="UTF-8"?>
<svg xmlns="http://www.w3.org/2000/svg" xmlns:xlink="http://www.w3.org/1999/xlink" width="24px" height="24px" viewBox="0 0 24 24" version="1.1">
<g id="surface1">
<path style=" stroke:none;fill-rule:nonzero;fill:rgb(91.764706%,26.27451%,20.784314%);fill-opacity:1;" d="M 12 4.75 C 13.769531 4.75 15.355469 5.359375 16.605469 6.550781 L 20.03125 3.125 C 17.949219 1.191406 15.234375 0 12 0 C 7.308594 0 3.253906 2.691406 1.28125 6.609375 L 5.269531 9.703125 C 6.214844 6.859375 8.871094 4.75 12 4.75 Z M 12 4.75 "/>
<path style=" stroke:none;fill-rule:nonzero;fill:rgb(25.882353%,52.156863%,95.686275%);fill-opacity:1;" d="M 23.488281 12.273438 C 23.488281 11.488281 23.414062 10.730469 23.300781 10 L 12 10 L 12 14.511719 L 18.46875 14.511719 C 18.179688 15.988281 17.339844 17.25 16.078125 18.101562 L 19.945312 21.101562 C 22.199219 19.011719 23.488281 15.921875 23.488281 12.273438 Z M 23.488281 12.273438 "/>
<path style=" stroke:none;fill-rule:nonzero;fill:rgb(98.431373%,73.72549%,1.960784%);fill-opacity:1;" d="M 5.265625 14.296875 C 5.023438 13.570312 4.886719 12.800781 4.886719 12 C 4.886719 11.199219 5.019531 10.429688 5.265625 9.703125 L 1.273438 6.609375 C 0.460938 8.230469 0 10.058594 0 12 C 0 13.941406 0.460938 15.769531 1.28125 17.390625 Z M 5.265625 14.296875 "/>
<path style=" stroke:none;fill-rule:nonzero;fill:rgb(20.392157%,65.882353%,32.54902%);fill-opacity:1;" d="M 12 24 C 15.238281 24 17.964844 22.933594 19.945312 21.09375 L 16.078125 18.09375 C 15.003906 18.820312 13.621094 19.246094 12 19.246094 C 8.871094 19.246094 6.214844 17.136719 5.265625 14.289062 L 1.273438 17.386719 C 3.253906 21.308594 7.308594 24 12 24 Z M 12 24 "/>
</g>
</svg>
