<svg xmlns:xlink="http://www.w3.org/1999/xlink" xmlns="http://www.w3.org/2000/svg" width="16" height="16" viewBox="0 0 5120 5120"><path id="p18cbqATyy" d="M828 4958 c-440 -703 -718 -1265 -779 -1576 -7 -40 -10 -98 -6 -155 31 -458 414 -817 872 -818 221 -1 401 62 569 200 228 185 360 510 312 770 -56 308 -319 843 -769 1566 -55 88 -101 161 -102 163 -1 1 -45 -67 -97 -150z m217 -1093 c217 -46 397 -219 451 -435 22 -88 15 -252 -14 -334 -62 -171 -208 -315 -371 -367 -84 -27 -221 -35 -303 -20 -83 16 -211 79 -274 135 -71 62 -138 166 -170 261 -63 185 -22 407 101 556 144 173 362 250 580 204z"></path><path id="phfuov3FJ" d="M820 3529 c-60 -27 -107 -74 -136 -134 -70 -147 24 -329 185 -364 131 -28 268 53 305 180 20 65 20 92 1 155 -43 146 -217 226 -355 163z"></path><path id="psAeXNMIV" d="M1500 4940 l0 -140 107 -187 c271 -478 436 -849 499 -1123 101 -442 -119 -954 -521 -1211 l-84 -54 -1 -952 0 -953 320 0 320 0 0 -160 0 -160 1155 0 1155 0 0 160 0 160 315 0 315 0 0 2380 0 2380 -805 0 -805 0 0 -485 0 -485 -165 0 -165 0 0 485 0 485 -820 0 -820 0 0 -140z m1340 -1325 l0 -165 -165 0 -165 0 0 165 0 165 165 0 165 0 0 -165z m630 0 l0 -165 -162 2 -163 3 -3 150 c-1 82 0 155 2 162 4 10 44 13 166 13 l160 0 0 -165z m630 0 l0 -165 -160 0 -160 0 0 165 0 165 160 0 160 0 0 -165z m-1260 -630 l0 -165 -165 0 -165 0 0 165 0 165 165 0 165 0 0 -165z m630 0 l0 -165 -162 2 -163 3 -3 150 c-1 82 0 155 2 162 4 10 44 13 166 13 l160 0 0 -165z m630 0 l0 -165 -160 0 -160 0 0 165 0 165 160 0 160 0 0 -165z m-1262 -617 l-3 -163 -160 0 -160 0 -3 163 -2 162 165 0 165 0 -2 -162z m632 -3 l0 -165 -162 2 -163 3 -3 163 -2 162 165 0 165 0 0 -165z m630 0 l0 -165 -160 0 -160 0 0 165 0 165 160 0 160 0 0 -165z m-950 -760 l0 -185 155 0 155 0 0 185 0 185 165 0 165 0 0 -530 0 -530 -165 0 -165 0 0 185 0 185 -155 0 -155 0 0 -185 0 -185 -160 0 -160 0 0 530 0 530 160 0 160 0 0 -185z"></path></svg>
