<svg xmlns:xlink="http://www.w3.org/1999/xlink" xmlns="http://www.w3.org/2000/svg" width="18" height="18" viewBox="0 0 5120 5120"><path id="poiEQVCyK" d="M1779 4444 c-15 -16 -77 -165 -170 -407 l-145 -381 -381 -145 c-242 -93 -391 -155 -407 -170 -20 -19 -26 -34 -26 -69 0 -42 4 -49 74 -120 l73 -75 396 -21 397 -21 391 -429 c301 -328 389 -430 378 -437 -8 -6 -27 -17 -44 -26 -78 -41 -1464 -808 -1493 -825 -36 -22 -72 -83 -72 -123 0 -49 28 -90 122 -182 71 -69 102 -93 129 -98 27 -5 127 13 380 68 l344 76 110 -109 c118 -116 156 -138 223 -125 85 16 142 84 142 170 0 52 -10 77 -48 117 -14 15 -24 30 -21 32 2 2 76 19 164 39 l160 35 85 -84 c47 -45 98 -88 113 -93 45 -17 99 -13 141 12 77 44 108 121 80 203 -8 25 -14 47 -12 49 2 1 63 15 136 30 l133 28 267 -265 c282 -279 340 -325 488 -386 219 -91 379 -83 487 23 75 74 92 121 91 245 -1 92 -5 116 -33 195 -70 192 -110 245 -419 557 l-255 257 28 136 c27 129 30 136 49 129 12 -4 51 -8 88 -8 53 -1 73 3 95 20 61 45 88 133 62 201 -5 15 -48 66 -93 113 l-84 85 35 160 c20 88 37 162 39 164 2 3 17 -7 32 -21 40 -38 65 -48 118 -48 118 0 204 119 163 227 -5 15 -59 78 -119 138 l-109 110 75 344 c55 252 74 354 69 380 -10 53 -194 237 -248 246 -55 11 -122 -17 -152 -64 -13 -20 -211 -376 -440 -791 -229 -415 -418 -756 -420 -758 -2 -2 -196 172 -432 387 l-428 392 -21 396 -21 396 -75 73 c-71 70 -78 74 -120 74 -35 0 -50 -6 -69 -26z"></path></svg>
