<svg xmlns:xlink="http://www.w3.org/1999/xlink" xmlns="http://www.w3.org/2000/svg" width="16" height="16" viewBox="0 0 5120 5120"><path id="plLkkxP7u" d="M1015 5110 c-70 -12 -110 -25 -158 -54 -89 -52 -162 -144 -194 -245 -17 -53 -18 -176 -18 -2251 0 -2075 1 -2198 18 -2251 43 -135 144 -238 283 -286 45 -16 142 -18 1184 -21 624 -2 1155 0 1180 3 44 6 60 21 602 563 542 542 557 558 563 602 3 25 5 844 3 1820 -3 1652 -5 1778 -21 1824 -48 137 -146 235 -283 283 -45 16 -158 18 -1579 19 -841 1 -1552 -2 -1580 -6z m874 -661 l31 -31 0 -258 0 -258 -31 -31 -31 -31 -258 0 -258 0 -32 31 -31 32 3 176 c3 197 12 226 86 304 78 82 123 95 324 96 l166 1 31 -31z m840 15 c45 -32 51 -67 51 -304 0 -237 -6 -272 -51 -304 -20 -14 -59 -16 -279 -16 -269 1 -269 1 -303 50 -15 21 -17 55 -17 270 0 215 2 249 17 270 34 49 34 49 303 50 220 0 259 -2 279 -16z m933 -13 c57 -29 119 -91 150 -151 l23 -45 3 -705 c2 -500 -1 -711 -9 -726 -6 -11 -23 -28 -39 -37 -26 -16 -126 -17 -1232 -17 -1118 0 -1205 1 -1228 17 -14 9 -30 24 -37 33 -18 22 -18 738 0 760 38 47 1 45 839 50 l790 5 29 33 29 32 0 340 c0 366 3 390 51 424 21 15 56 16 304 14 273 -3 281 -4 327 -27z m-1682 -1904 c48 -38 50 -48 50 -305 0 -210 -2 -248 -17 -272 -29 -49 -42 -51 -283 -48 -214 3 -227 4 -272 27 -57 29 -119 91 -150 151 -21 41 -23 60 -26 221 l-3 176 31 32 32 31 311 0 c230 -1 316 -4 327 -13z m869 -18 l31 -31 0 -258 0 -258 -31 -31 -31 -31 -258 0 -258 0 -31 31 -31 31 0 258 0 258 31 31 31 31 258 0 258 0 31 -31z m961 0 l31 -32 -3 -176 c-3 -161 -5 -180 -26 -221 -31 -60 -93 -122 -150 -151 -45 -23 -58 -24 -272 -27 -241 -3 -254 -1 -283 48 -15 24 -17 62 -17 272 0 213 2 247 17 268 34 50 30 49 360 50 l311 0 32 -31z"></path></svg>
