<svg xmlns:xlink="http://www.w3.org/1999/xlink" xmlns="http://www.w3.org/2000/svg" width="30" height="30" viewBox="0 0 5120 5120"><g id="l13rnTgA3j7XavdPdWrpnF8" fill="rgb(0,0,0)" style="transform: none;"><g><path id="pU3C4ReVp" d="M680 5095 c-101 -23 -184 -62 -323 -151 -142 -92 -202 -118 -294 -129 l-63 -7 0 -145 0 -145 67 7 c168 17 252 49 431 167 152 99 201 119 314 126 154 9 232 -16 398 -128 190 -128 298 -163 495 -164 200 0 298 32 492 160 177 116 209 128 358 129 153 0 184 -10 361 -125 207 -134 302 -165 504 -163 195 1 303 37 490 163 156 105 226 130 363 130 130 0 194 -25 362 -139 141 -96 255 -139 413 -156 l62 -7 0 145 0 146 -57 7 c-87 10 -153 38 -271 116 -218 144 -347 185 -557 175 -178 -8 -273 -42 -446 -158 -136 -91 -194 -118 -286 -131 -63 -9 -99 -9 -159 0 -98 15 -154 41 -289 132 -186 127 -321 167 -524 157 -187 -9 -278 -41 -455 -162 -125 -85 -183 -112 -280 -127 -155 -24 -260 7 -444 131 -181 121 -269 151 -462 157 -95 3 -154 -1 -200 -11z"></path><path id="pgFmg7vfY" d="M755 4487 c-22 -12 -74 -46 -115 -74 -41 -27 -104 -65 -139 -83 l-64 -32 69 -40 c38 -22 130 -71 205 -109 540 -270 1103 -412 1734 -436 l173 -6 316 -866 c173 -476 331 -909 350 -962 l35 -96 -52 -11 c-100 -22 -173 -31 -287 -38 l-115 -6 -115 -58 c-254 -128 -506 -211 -787 -260 -39 -7 -77 -16 -83 -20 -9 -6 -4 -30 19 -91 68 -184 132 -315 213 -431 251 -362 603 -593 1049 -689 87 -19 136 -23 304 -23 173 -1 215 2 313 23 62 13 115 22 116 20 2 -2 18 -46 36 -97 19 -53 38 -91 44 -89 6 2 65 24 131 47 66 24 122 45 125 47 2 2 -11 47 -29 99 -19 52 -32 96 -30 98 2 2 24 14 49 26 374 189 678 545 810 950 64 196 74 262 74 515 0 213 -2 238 -26 340 -24 99 -108 359 -121 372 -3 3 -68 -29 -145 -71 -240 -131 -448 -212 -700 -271 -134 -31 -146 -36 -205 -83 -130 -102 -301 -203 -316 -186 -5 5 -156 414 -336 909 -180 495 -330 905 -332 911 -2 7 46 17 136 28 361 44 705 132 1046 267 121 48 401 184 508 246 l69 40 -73 37 c-41 21 -107 61 -149 90 -108 76 -131 86 -198 86 -57 0 -63 -3 -183 -81 -68 -45 -156 -97 -195 -115 -254 -119 -592 -132 -862 -34 -85 32 -169 78 -282 154 l-105 71 -75 0 -75 0 -110 -74 c-118 -79 -194 -120 -277 -151 -265 -97 -600 -85 -854 30 -36 16 -122 66 -191 112 -122 80 -129 83 -192 86 -55 2 -73 -1 -106 -21z"></path><path id="p8na0deqv" d="M1002 3420 c-85 -165 -95 -179 -113 -170 -10 6 -86 53 -169 105 -82 52 -152 95 -156 95 -4 0 -4 -91 0 -201 l7 -202 -207 7 -207 7 15 -23 c81 -126 198 -316 198 -324 0 -5 -71 -46 -158 -91 -86 -45 -166 -88 -176 -96 -18 -13 -5 -22 157 -106 98 -51 177 -97 177 -102 0 -5 -42 -76 -94 -158 -137 -216 -133 -193 -29 -187 48 3 141 8 206 11 l118 6 -7 -207 c-6 -177 -5 -206 7 -199 8 5 85 53 172 108 89 56 162 96 167 91 4 -5 48 -84 96 -176 49 -93 91 -168 94 -168 3 0 45 75 94 168 48 92 92 171 96 176 5 5 78 -35 167 -91 87 -55 164 -103 172 -108 12 -7 13 23 7 199 l-7 207 118 -6 c65 -3 158 -8 206 -11 104 -6 108 -29 -28 186 -52 82 -95 154 -95 159 0 6 79 51 176 102 152 79 175 94 160 104 -9 7 -88 50 -176 96 -88 46 -160 88 -160 93 0 8 117 198 198 324 l15 23 -207 -7 -207 -7 7 202 c4 110 4 201 0 201 -4 0 -74 -43 -156 -95 -83 -52 -159 -99 -169 -105 -18 -9 -28 5 -113 170 -51 99 -95 180 -98 180 -3 0 -47 -81 -98 -180z m224 -365 c181 -42 333 -177 396 -350 26 -73 35 -226 19 -307 -27 -129 -129 -276 -241 -348 -91 -58 -181 -83 -300 -83 -87 0 -117 4 -178 25 -175 62 -303 198 -356 377 -20 68 -21 217 -1 290 52 197 207 348 407 396 72 18 180 18 254 0z"></path></g></g></svg>
