<svg xmlns:xlink="http://www.w3.org/1999/xlink" xmlns="http://www.w3.org/2000/svg" width="30" height="30" viewBox="0 0 5120 5120"><g id="l2wc78kKW9DtENC7nEA0xIf" fill="rgb(0,0,0)" style="transform: none;"><g style="transform: none;"><path id="p5xeeL4M9" d="M83 5113 c-36 -7 -71 -51 -78 -97 -4 -23 -5 -127 -3 -231 4 -243 10 -254 146 -263 l72 -5 0 -137 c0 -76 3 -151 6 -169 10 -47 49 -80 104 -87 l47 -6 6 -110 c7 -130 26 -178 94 -238 25 -22 50 -40 54 -40 5 0 9 -333 9 -740 0 -407 -4 -740 -9 -740 -4 0 -29 -18 -53 -40 -68 -59 -88 -112 -95 -240 l-6 -108 -46 -6 c-25 -4 -53 -12 -61 -19 -43 -35 -45 -44 -50 -255 l-5 -206 -32 -8 c-18 -5 -39 -18 -48 -30 -20 -30 -19 -91 3 -116 9 -12 551 -289 1203 -616 858 -432 1195 -596 1219 -596 24 0 361 164 1219 596 652 327 1194 604 1204 616 21 25 22 86 2 116 -9 12 -30 25 -48 30 l-32 8 -5 206 c-5 211 -7 220 -50 255 -8 7 -36 15 -61 19 l-46 6 -6 108 c-7 128 -27 181 -95 240 -24 22 -48 40 -53 40 -4 0 -9 85 -11 189 -3 174 -5 192 -24 218 -40 54 -114 52 -151 -4 -15 -23 -19 -54 -21 -200 l-4 -173 -99 0 -99 0 0 710 0 710 99 0 99 0 4 -176 3 -176 33 -29 c42 -38 82 -38 124 0 l33 29 3 191 c2 105 7 191 11 191 5 0 29 18 53 40 68 59 88 112 95 240 l6 108 47 6 c55 7 94 40 104 87 3 18 6 93 6 169 l0 137 73 5 c78 5 108 18 129 57 19 34 19 448 0 482 -31 58 158 54 -2527 55 -1359 1 -2480 -1 -2492 -3z m4837 -293 l0 -100 -2360 0 -2360 0 0 100 0 100 2360 0 2360 0 0 -100z m-220 -400 l0 -100 -2140 0 -2140 0 0 100 0 100 2140 0 2140 0 0 -100z m-3600 -394 c0 -73 -4 -98 -16 -110 -13 -14 -50 -16 -244 -16 -194 0 -231 2 -244 16 -12 12 -16 37 -16 110 l0 94 260 0 260 0 0 -94z m431 -18 c4 -104 7 -117 35 -168 20 -37 46 -65 77 -85 l46 -30 0 -735 0 -735 -46 -30 c-31 -20 -57 -48 -77 -85 -28 -51 -31 -64 -35 -167 l-3 -113 -113 0 -112 0 -6 108 c-7 130 -27 183 -95 242 -24 22 -49 40 -53 40 -5 0 -9 333 -9 740 0 407 4 740 9 740 4 0 29 18 53 40 68 59 88 112 95 242 l6 108 112 0 113 0 3 -112z m719 20 c0 -136 16 -128 -266 -128 -279 0 -264 -7 -264 132 l0 88 265 0 265 0 0 -92z m430 -5 c0 -54 5 -115 10 -135 15 -51 68 -119 113 -143 l37 -20 0 -735 0 -735 -37 -20 c-45 -24 -98 -92 -113 -143 -5 -20 -10 -81 -10 -134 l0 -98 -120 0 -120 0 0 98 c0 53 -5 114 -10 134 -15 51 -68 119 -113 143 l-37 20 0 735 0 735 37 20 c45 24 98 92 113 143 5 20 10 81 10 135 l0 97 120 0 120 0 0 -97z m720 9 c0 -139 15 -132 -262 -132 -283 0 -268 -7 -268 127 l0 93 265 0 265 0 0 -88z m423 -22 c7 -132 26 -179 94 -240 25 -22 50 -40 54 -40 5 0 9 -333 9 -740 0 -407 -4 -740 -9 -740 -4 0 -29 -18 -53 -40 -68 -59 -88 -112 -95 -242 l-6 -108 -112 0 -113 0 -3 113 c-4 103 -7 116 -35 167 -20 37 -46 65 -77 85 l-46 30 0 735 0 735 46 30 c31 20 57 48 77 85 28 51 31 64 35 168 l3 112 113 0 112 0 6 -110z m717 16 c0 -73 -4 -98 -16 -110 -13 -14 -50 -16 -244 -16 -194 0 -231 2 -244 16 -12 12 -16 37 -16 110 l0 94 260 0 260 0 0 -94z m-3600 -1036 l0 -710 -100 0 -100 0 0 710 0 710 100 0 100 0 0 -710z m1150 0 l0 -710 -105 0 -105 0 0 710 0 710 105 0 105 0 0 -710z m1150 0 l0 -710 -105 0 -105 0 0 710 0 710 105 0 105 0 0 -710z m-2156 -926 c12 -12 16 -37 16 -110 l0 -94 -260 0 -260 0 0 94 c0 73 4 98 16 110 13 14 50 16 244 16 194 0 231 -2 244 -16z m1148 -1 c15 -13 18 -32 18 -110 l0 -93 -265 0 -265 0 0 88 c0 139 -15 132 262 132 201 0 234 -2 250 -17z m1152 -5 c12 -16 16 -47 16 -110 l0 -88 -265 0 -265 0 0 92 c0 136 -16 128 266 128 229 0 233 0 248 -22z m1140 6 c12 -12 16 -37 16 -110 l0 -94 -260 0 -260 0 0 94 c0 73 4 98 16 110 13 14 50 16 244 16 194 0 231 -2 244 -16z m176 -544 l0 -140 -794 0 c-436 0 -807 -3 -825 -6 -46 -10 -81 -49 -81 -93 1 -37 10 -54 44 -81 16 -13 119 -16 731 -20 l712 -5 -964 -485 -963 -485 -963 485 -964 485 726 5 c805 6 763 2 791 71 12 28 11 36 -6 68 -13 24 -31 40 -54 48 -26 9 -247 12 -852 12 l-818 1 0 140 0 140 2140 0 2140 0 0 -140z"></path><path id="p7Q1kaeKz" d="M2496 1344 c-19 -19 -26 -37 -26 -64 0 -27 7 -45 26 -64 58 -57 154 -17 154 64 0 51 -39 90 -90 90 -27 0 -45 -7 -64 -26z"></path><path id="pELN8VDDw" d="M4416 3054 c-19 -19 -26 -37 -26 -64 0 -27 7 -45 26 -64 19 -19 37 -26 64 -26 27 0 45 7 64 26 19 19 26 37 26 64 0 27 -7 45 -26 64 -19 19 -37 26 -64 26 -27 0 -45 -7 -64 -26z"></path></g></g></svg>
