<svg xmlns:xlink="http://www.w3.org/1999/xlink" xmlns="http://www.w3.org/2000/svg" width="30" height="30" viewBox="0 0 5120 5120"><g id="lSmJbwhhd9TgiVDMJTBQQs" fill="rgb(0,0,0)" style="transform: none;"><g><path id="pJMUWcBmB" d="M1871 5109 c-73 -13 -145 -54 -195 -111 -41 -47 -44 -48 -246 -114 -212 -68 -344 -125 -442 -191 -246 -164 -410 -379 -504 -658 -48 -143 -64 -265 -64 -482 l0 -182 -65 -96 c-81 -120 -114 -184 -160 -315 -51 -148 -68 -258 -68 -430 1 -152 19 -273 63 -410 32 -98 122 -277 176 -350 l49 -65 5 -735 5 -735 27 -51 c15 -28 50 -72 78 -97 137 -124 350 -99 462 52 57 78 58 88 58 629 l0 494 23 -5 c12 -3 65 -16 117 -28 l95 -23 1180 -4 c1234 -3 1316 -1 1485 40 446 107 821 441 974 866 89 249 93 558 10 823 -105 336 -353 628 -670 790 -191 97 -379 141 -604 140 -286 -1 -517 -74 -766 -242 -118 -80 -171 -104 -261 -120 -139 -24 -240 4 -402 115 -62 42 -144 92 -182 112 -95 47 -254 100 -364 119 -164 29 -463 16 -570 -25 -15 -6 -30 -8 -33 -5 -8 8 37 113 73 170 44 70 154 169 228 207 63 31 249 98 275 98 8 0 34 -18 59 -39 81 -72 106 -76 458 -76 l310 0 67 33 c81 40 139 102 168 180 20 52 21 73 18 272 -3 205 -4 217 -28 265 -34 70 -108 139 -177 166 -55 22 -74 23 -333 25 -151 2 -299 -2 -329 -7z m607 -219 c53 -32 62 -68 62 -245 0 -171 -8 -206 -55 -243 -27 -21 -36 -22 -312 -22 -312 0 -328 3 -358 60 -22 42 -22 368 0 410 29 57 43 59 350 60 264 0 282 -1 313 -20z m-888 -288 l0 -118 -57 -18 c-151 -48 -233 -83 -314 -138 -187 -125 -312 -312 -354 -533 -9 -45 -20 -74 -32 -83 -96 -67 -205 -133 -211 -128 -12 13 18 262 42 346 84 288 280 525 541 654 63 32 348 134 378 136 4 0 7 -53 7 -118z m140 -975 c143 -37 242 -83 380 -176 189 -127 280 -161 438 -161 165 0 278 40 469 167 202 135 372 191 603 200 100 4 159 1 229 -11 480 -84 843 -447 927 -927 22 -126 15 -330 -16 -449 -113 -434 -479 -768 -927 -845 -78 -13 -247 -15 -1329 -13 l-1239 3 -97 27 c-186 51 -352 145 -488 275 -244 233 -360 518 -347 858 6 169 35 290 101 430 161 341 457 570 825 640 119 23 350 14 471 -18z m-1047 -2176 c29 -21 78 -53 110 -71 l57 -32 0 -526 c0 -509 -1 -528 -20 -560 -32 -51 -93 -66 -151 -36 -59 30 -59 26 -59 674 0 324 2 590 5 590 3 0 29 -17 58 -39z"></path><path id="pIz1lsys0" d="M1355 3430 c-365 -39 -678 -312 -777 -677 -27 -103 -30 -315 -5 -417 84 -337 331 -589 667 -678 l85 -23 1220 0 1220 0 81 22 c183 48 333 132 455 253 194 192 290 458 260 716 -55 463 -433 804 -891 805 -223 0 -348 -42 -574 -195 -104 -70 -205 -116 -324 -148 -60 -16 -108 -21 -217 -21 -219 -2 -344 39 -542 176 -130 89 -182 116 -292 151 -71 23 -233 48 -281 44 -8 0 -46 -4 -85 -8z m325 -235 c63 -22 117 -51 210 -114 224 -152 383 -209 612 -218 270 -12 478 51 727 220 172 117 289 153 470 145 290 -13 533 -196 627 -473 36 -107 44 -259 19 -369 -51 -230 -235 -427 -480 -513 l-80 -28 -1213 -3 c-1340 -3 -1271 -6 -1415 61 -187 87 -335 270 -383 472 -24 105 -15 284 21 388 70 201 246 374 445 436 93 29 102 30 235 27 101 -2 133 -7 205 -31z"></path></g></g></svg>
