<svg xmlns:xlink="http://www.w3.org/1999/xlink" xmlns="http://www.w3.org/2000/svg" width="30" height="30" viewBox="0 0 5120 5120"><g id="l7Qk98jnBTl9eSqagwN7iks" fill="rgb(0,0,0)" style="transform: none;"><g><path id="p6dmDm3Ff" d="M580 5110 c-154 -16 -277 -75 -386 -184 -116 -117 -184 -270 -184 -417 0 -57 3 -70 25 -91 33 -33 61 -38 211 -38 l124 0 0 -972 c0 -1100 -1 -1072 78 -1241 119 -255 313 -413 592 -483 50 -12 137 -17 377 -21 l312 -6 -47 -53 c-131 -147 -201 -342 -189 -529 7 -118 25 -190 54 -219 66 -66 341 -74 498 -15 28 11 55 19 60 19 6 0 11 -39 12 -93 6 -246 125 -463 333 -603 86 -58 114 -58 200 0 79 53 161 133 208 203 19 29 38 53 41 53 3 0 18 -24 33 -53 110 -208 348 -357 574 -357 68 0 74 2 98 31 34 40 34 80 -1 119 -25 27 -37 32 -109 40 -136 15 -245 68 -329 162 -49 54 -101 152 -110 210 -7 35 -6 36 27 43 55 12 169 65 223 105 159 117 265 321 265 510 0 124 -52 272 -130 376 l-39 52 332 5 c347 5 386 10 517 58 265 98 473 342 531 623 18 85 19 150 19 1064 l0 972 99 0 c124 0 154 6 186 38 22 21 25 34 25 91 0 147 -68 300 -184 417 -81 80 -167 132 -276 166 l-75 23 -1965 1 c-1081 1 -1994 -2 -2030 -6z m4083 -227 c91 -43 168 -118 212 -206 19 -38 35 -76 35 -83 0 -11 -165 -14 -969 -16 -968 -3 -970 -3 -998 -24 -54 -40 -52 -114 4 -151 25 -17 77 -18 845 -21 l818 -2 0 -670 c0 -369 -2 -670 -5 -670 -2 0 -29 15 -58 34 -79 51 -149 71 -242 71 -107 0 -151 -18 -311 -125 -174 -117 -186 -122 -259 -122 -73 0 -72 -1 -250 117 -170 112 -213 130 -320 130 -112 0 -168 -22 -320 -124 -173 -117 -187 -124 -260 -123 -73 0 -89 7 -253 120 -156 107 -201 125 -312 126 -117 1 -170 -19 -325 -123 -174 -117 -186 -123 -261 -123 -74 1 -82 5 -254 121 -155 106 -205 125 -315 126 -93 0 -163 -20 -242 -71 -29 -19 -56 -34 -58 -34 -3 0 -5 301 -5 670 l0 670 793 2 c744 3 795 4 820 21 56 37 58 111 4 151 -28 21 -30 21 -998 24 -759 2 -969 5 -969 15 0 30 63 141 107 188 53 56 112 95 188 121 47 16 174 17 2070 15 l2020 -2 68 -32z m-3745 -1933 c27 -7 99 -48 190 -109 167 -112 220 -134 331 -133 106 0 167 24 316 126 148 101 167 111 220 120 75 13 126 -8 283 -113 187 -126 263 -151 392 -130 80 13 146 45 275 136 140 98 159 107 235 107 77 0 86 -5 264 -124 150 -101 207 -123 315 -122 107 0 155 20 318 129 150 100 195 122 253 122 54 0 99 -20 204 -90 l95 -64 1 -173 c0 -208 -15 -292 -72 -412 -55 -114 -177 -238 -288 -292 -146 -72 -44 -68 -1665 -68 -1275 0 -1468 2 -1520 15 -134 34 -235 95 -330 197 l-59 63 415 5 c444 5 445 5 468 57 18 39 13 71 -18 105 l-29 33 -465 3 -465 3 -7 27 c-3 15 -9 119 -11 232 l-5 205 93 61 c114 76 114 75 152 85 44 10 65 10 114 -1z m1435 -1350 c15 -106 -23 -259 -89 -359 -109 -163 -293 -258 -486 -249 -42 2 -80 6 -84 10 -3 4 -9 38 -12 76 -18 251 161 499 409 566 34 10 91 14 154 13 l100 -2 8 -55z m768 23 c180 -84 281 -271 250 -462 -31 -189 -174 -331 -365 -363 -171 -28 -353 59 -442 210 -113 192 -53 456 130 578 89 59 147 75 261 71 88 -2 108 -6 166 -34z m-731 -691 c52 -100 163 -208 269 -260 46 -23 90 -42 97 -42 21 0 17 -17 -23 -98 -26 -53 -57 -96 -106 -144 -38 -37 -73 -68 -78 -68 -4 0 -39 30 -76 67 -113 113 -166 239 -166 398 -1 84 25 215 42 215 3 0 22 -30 41 -68z"></path><path id="p1AuyG5147" d="M2496 4544 c-19 -19 -26 -37 -26 -64 0 -27 7 -45 26 -64 19 -19 37 -26 64 -26 27 0 45 7 64 26 19 19 26 37 26 64 0 27 -7 45 -26 64 -19 19 -37 26 -64 26 -27 0 -45 -7 -64 -26z"></path><path id="pgGFzG69Z" d="M1796 2304 c-58 -58 -17 -154 66 -154 54 0 88 35 88 90 0 82 -95 122 -154 64z"></path></g></g></svg>
