<svg xmlns:xlink="http://www.w3.org/1999/xlink" xmlns="http://www.w3.org/2000/svg" width="30" height="30" viewBox="0 0 5120 5120"><g id="l33xb8aDy1884xv3gCFk9o1" fill="rgb(0,0,0)" style="transform: none;"><g><path id="poegmhGHs" d="M906 4959 c-33 -26 -36 -79 -5 -107 60 -57 545 -99 819 -73 165 16 326 46 356 66 34 22 33 77 -2 112 -28 28 -17 28 -204 -4 -84 -14 -161 -18 -385 -18 -246 0 -295 3 -404 23 -150 27 -142 27 -175 1z"></path><path id="pny7m7caZ" d="M3305 4960 c-303 -35 -537 -110 -885 -287 -345 -175 -636 -243 -995 -230 -385 14 -725 123 -1156 372 -177 103 -197 109 -239 67 -52 -53 -36 -91 63 -145 34 -18 127 -71 207 -117 426 -247 839 -357 1258 -336 l132 7 0 -197 0 -198 -99 97 c-108 107 -132 117 -176 72 -48 -47 -39 -65 125 -230 l151 -151 -3 -129 -3 -129 -54 72 c-76 103 -101 113 -153 62 -24 -24 -29 -36 -23 -57 7 -31 247 -337 281 -360 43 -28 72 -4 213 174 137 173 147 195 115 241 -11 16 -25 22 -54 22 -41 0 -62 -18 -125 -108 -17 -23 -33 -42 -37 -42 -5 0 -8 55 -8 123 l0 122 135 135 c164 163 182 189 165 231 -7 16 -21 34 -31 39 -42 23 -63 11 -159 -85 -52 -52 -98 -95 -102 -95 -5 0 -8 92 -8 204 l0 204 68 12 c197 37 375 102 652 238 276 136 499 204 761 233 104 12 461 7 507 -7 l22 -6 0 -296 0 -296 -133 132 c-112 110 -139 132 -164 132 -37 0 -73 -36 -73 -74 0 -23 34 -64 180 -216 l180 -187 0 -143 0 -142 -87 108 c-48 60 -92 112 -97 117 -6 4 -26 6 -45 5 -43 -4 -77 -44 -67 -81 7 -29 294 -396 333 -427 32 -25 54 -25 86 0 27 21 306 370 326 408 22 41 -12 102 -56 102 -40 0 -59 -16 -148 -126 l-85 -106 0 143 0 143 190 191 c207 208 215 221 165 270 -46 47 -66 37 -210 -105 -72 -71 -134 -130 -138 -130 -4 0 -7 126 -7 280 l0 280 28 -6 c102 -24 321 -106 438 -163 195 -96 349 -200 491 -333 39 -36 60 -48 82 -48 69 0 95 80 45 139 -72 86 -350 279 -539 373 -220 111 -424 179 -650 219 -137 24 -455 34 -590 19z"></path><path id="p7AQzfAmV" d="M641 4174 c-18 -23 -21 -41 -21 -117 l0 -91 -99 97 c-108 107 -137 119 -179 74 -45 -48 -35 -68 128 -232 l151 -152 -3 -88 -3 -89 -54 72 c-74 100 -109 115 -156 67 -43 -42 -34 -63 95 -225 l120 -150 0 -155 c0 -152 1 -156 25 -180 30 -30 64 -32 99 -4 l26 20 0 158 0 158 115 144 c64 79 118 154 122 167 8 31 -11 70 -41 84 -40 18 -76 -5 -137 -85 l-54 -72 -3 89 -3 90 151 151 c131 132 150 154 150 183 0 41 -30 72 -71 72 -27 0 -48 -16 -130 -97 l-99 -97 0 97 c0 84 -3 100 -20 117 -30 30 -83 27 -109 -6z"></path><path id="p1HJOTxGXU" d="M72 3090 c-32 -13 -49 -54 -35 -88 5 -15 357 -525 782 -1135 587 -841 778 -1108 797 -1113 14 -4 33 0 47 9 12 8 191 267 397 575 206 309 378 560 382 559 4 -1 130 -115 280 -252 150 -138 287 -261 304 -274 64 -47 62 -48 385 370 291 378 293 379 313 361 34 -30 458 -395 494 -424 41 -34 81 -36 109 -5 11 12 190 275 398 585 326 487 376 567 370 590 -12 53 -78 80 -117 50 -9 -7 -172 -248 -362 -535 -190 -288 -349 -523 -353 -523 -13 0 -453 390 -453 401 0 6 76 110 168 232 93 122 174 232 181 245 16 29 5 79 -19 92 -28 15 -77 12 -94 -6 -9 -8 -230 -296 -493 -640 -262 -343 -480 -623 -484 -622 -19 8 -524 483 -523 493 1 7 144 223 319 480 175 258 320 477 323 487 8 33 -8 67 -39 84 -43 22 -75 6 -120 -59 -20 -28 -341 -502 -714 -1052 -373 -550 -681 -1004 -685 -1008 -4 -4 -332 462 -731 1035 -398 574 -736 1055 -751 1071 -28 29 -39 31 -76 17z"></path><path id="pl7rPFxpR" d="M2268 2909 c-30 -11 -45 -41 -79 -148 l-24 -75 -105 -68 c-58 -38 -110 -79 -117 -91 -22 -43 -95 -339 -89 -363 9 -33 61 -59 92 -45 36 16 49 46 84 182 18 70 35 131 39 137 3 5 52 39 108 75 56 36 109 77 118 91 22 33 75 203 75 239 0 29 -39 78 -62 76 -7 0 -25 -5 -40 -10z"></path><path id="pzkRff7Ym" d="M1070 2300 c-44 -44 -36 -58 245 -463 162 -232 276 -387 292 -395 40 -22 64 -4 142 109 81 117 90 153 45 188 -50 39 -86 25 -135 -50 -30 -48 -33 -50 -46 -33 -8 11 -107 152 -220 314 -113 162 -217 307 -231 323 -30 32 -64 35 -92 7z"></path><path id="pdtyn6z81" d="M3823 1126 c-172 -42 -316 -181 -367 -355 -21 -70 -20 -192 0 -262 65 -217 264 -370 482 -369 121 1 257 58 346 146 100 98 146 210 146 354 0 50 -7 109 -16 141 -73 249 -341 405 -591 345z m208 -152 c103 -30 166 -83 220 -184 21 -39 24 -58 24 -150 0 -96 -2 -110 -28 -159 -64 -120 -170 -185 -307 -185 -110 -1 -170 23 -246 98 -76 75 -104 142 -104 246 0 92 29 170 88 232 56 60 94 83 163 102 72 19 124 19 190 0z"></path></g></g></svg>
