<svg xmlns:xlink="http://www.w3.org/1999/xlink" xmlns="http://www.w3.org/2000/svg" width="30" height="30" viewBox="0 0 5120 5120"><g id="l2wyq0PU29klzQFwA5djMq" fill="rgb(0,0,0)" style="transform: none;"><g><path id="pSyU5DAAh" d="M2511 4668 c-27 -7 -253 -227 -999 -971 -530 -529 -992 -996 -1027 -1037 -213 -256 -318 -541 -318 -870 -1 -285 71 -523 230 -762 71 -108 249 -284 362 -357 236 -154 463 -222 741 -224 370 -1 677 123 958 388 l102 97 101 -96 c274 -260 582 -387 943 -387 377 0 694 129 956 391 258 257 392 578 393 940 1 339 -105 628 -324 885 -37 44 -499 510 -1026 1037 -1059 1057 -990 996 -1092 966z m985 -1300 c652 -653 943 -952 973 -998 201 -307 232 -694 82 -1015 -54 -116 -103 -186 -194 -282 -130 -135 -271 -221 -463 -280 -84 -25 -100 -27 -284 -27 -183 0 -200 2 -283 27 -210 65 -311 130 -522 337 -243 240 -246 240 -490 1 -88 -87 -189 -177 -224 -200 -191 -129 -446 -194 -678 -171 -140 13 -242 42 -368 104 -181 89 -319 216 -423 387 -207 340 -196 776 29 1119 30 46 321 345 973 998 512 512 933 932 936 932 3 0 424 -420 936 -932z"></path><path id="pqMeMGKUo" d="M4065 2435 c-75 -27 -116 -99 -101 -178 3 -19 28 -59 55 -91 98 -115 141 -231 141 -378 0 -144 -39 -253 -135 -371 -32 -41 -57 -83 -61 -104 -21 -110 88 -207 196 -174 74 22 199 185 254 332 111 296 58 625 -140 871 -76 95 -133 120 -209 93z"></path></g></g></svg>
