<svg xmlns:xlink="http://www.w3.org/1999/xlink" xmlns="http://www.w3.org/2000/svg" width="30" height="30" viewBox="0 0 5120 5120"><g id="l4hVFPZu7wdMeyiMeKWTpII" fill="rgb(0,0,0)" style="transform: none;"><g><path id="pyv0AYlPP" d="M867 5019 c-65 -13 -143 -49 -217 -99 -86 -58 -135 -78 -215 -86 -86 -9 -115 -32 -115 -94 0 -31 6 -47 26 -67 25 -24 30 -25 108 -21 99 7 168 33 292 111 105 66 158 81 262 75 85 -5 114 -17 239 -98 107 -70 161 -85 308 -84 143 0 182 13 327 104 111 69 161 84 266 78 85 -5 114 -17 238 -98 95 -62 154 -81 270 -87 146 -8 233 18 384 117 91 59 146 74 248 68 85 -5 114 -17 235 -96 107 -70 168 -87 307 -87 139 0 202 19 328 101 110 72 161 88 265 82 90 -5 116 -15 238 -94 93 -61 166 -86 265 -92 l80 -4 27 32 c62 73 20 143 -93 155 -78 8 -122 26 -229 95 -197 126 -412 131 -601 13 -153 -96 -183 -107 -279 -107 -99 0 -133 12 -257 92 -113 72 -186 95 -309 96 -127 1 -212 -24 -321 -95 -123 -81 -156 -93 -254 -93 -98 0 -136 14 -260 94 -114 72 -183 93 -310 94 -129 1 -203 -22 -317 -96 -102 -67 -145 -85 -219 -93 -89 -10 -165 13 -278 84 -52 33 -122 70 -157 81 -73 25 -210 34 -282 19z"></path><path id="pqmq93eWh" d="M2058 4677 c-20 -8 -73 -38 -118 -66 -93 -60 -187 -98 -264 -107 -54 -6 -54 -7 -46 -35 5 -15 22 -54 39 -86 147 -274 586 -635 1191 -978 72 -41 136 -75 142 -75 15 0 235 126 398 228 528 330 878 656 968 901 18 49 24 86 24 144 0 43 -2 80 -4 83 -11 10 -76 -20 -158 -71 -49 -32 -129 -71 -177 -88 -82 -29 -97 -31 -223 -31 -119 0 -145 4 -215 27 -47 15 -124 53 -184 91 -57 36 -121 68 -141 71 -50 8 -108 -8 -167 -48 -85 -58 -138 -86 -219 -114 -71 -24 -92 -27 -214 -27 -189 1 -245 19 -455 152 -59 38 -124 48 -177 29z"></path><path id="p11wZTEdGU" d="M105 4488 c-85 -97 -95 -113 -95 -147 0 -26 7 -46 23 -62 52 -56 451 -405 470 -412 31 -12 68 0 103 34 l30 29 1835 -1601 c1009 -880 1847 -1613 1862 -1628 l29 -28 -26 -38 c-37 -54 -34 -88 12 -135 87 -90 445 -400 468 -406 42 -11 77 15 188 140 96 107 106 122 106 157 0 49 -4 53 -273 293 -197 176 -211 186 -249 186 -32 0 -46 -6 -68 -31 l-29 -30 -1858 1622 c-1022 892 -1862 1625 -1867 1630 -5 4 3 22 18 39 28 34 33 72 13 106 -7 11 -78 80 -159 152 l-146 132 -59 0 c-79 0 -146 24 -194 70 l-39 37 -95 -109z"></path><path id="pfRfaEzQP" d="M1525 3562 c8 -7 1070 -933 1147 -999 10 -9 109 -27 279 -49 145 -19 264 -36 265 -37 1 -1 94 -143 208 -315 156 -237 206 -321 207 -345 1 -95 0 -93 227 -292 118 -102 216 -184 219 -182 7 8 -37 599 -48 634 -6 18 -129 212 -273 431 l-263 399 49 353 c27 194 47 354 45 356 -2 3 -70 -37 -151 -86 -242 -150 -377 -222 -423 -227 -36 -5 -55 1 -140 47 -54 30 -160 91 -237 137 -76 46 -140 82 -141 81 -1 -2 -13 -78 -25 -171 l-23 -167 -26 17 c-14 9 -123 81 -241 159 l-215 142 -210 57 c-115 31 -217 58 -225 61 -10 3 -11 2 -5 -4z"></path><path id="puyCdUSWn" d="M876 3534 c-13 -35 -5 -111 17 -154 33 -66 82 -94 236 -135 73 -20 134 -35 136 -33 2 2 -69 66 -157 143 -235 206 -225 197 -232 179z"></path><path id="pE0xxMttz" d="M2930 2337 c8 -8 96 -86 195 -172 191 -167 209 -174 160 -68 -61 135 -179 225 -325 248 -40 6 -43 5 -30 -8z"></path><path id="pl6EKPbhj" d="M2499 2050 c-82 -272 119 -540 406 -540 88 0 225 44 225 72 0 4 -123 114 -272 244 -150 130 -287 251 -305 267 l-32 30 -22 -73z"></path><path id="pyNkgcLwS" d="M3687 1038 c8 -102 21 -136 66 -182 50 -49 114 -72 175 -61 90 15 89 19 -81 168 -86 75 -158 137 -161 137 -2 0 -2 -28 1 -62z"></path></g></g></svg>
