<svg xmlns:xlink="http://www.w3.org/1999/xlink" xmlns="http://www.w3.org/2000/svg" width="30" height="30" viewBox="0 0 5120 5120"><g id="l4mAlOcAxzIGIZGQ8zFw3Iq" fill="rgb(0,0,0)" style="transform: none;"><g><path id="pHsWAYL7G" d="M80 3920 l0 -1120 85 0 84 0 11 -42 c39 -152 130 -277 262 -357 l38 -23 0 -749 0 -749 160 0 160 0 0 -240 0 -240 80 0 80 0 0 -160 0 -160 400 0 400 0 0 160 0 160 80 0 80 0 0 240 0 240 160 0 160 0 0 560 0 560 320 0 320 0 0 -400 0 -400 80 0 80 0 2 -312 3 -312 45 -8 c25 -4 60 -10 78 -13 l32 -6 0 -154 0 -155 80 0 80 0 0 140 c0 92 4 140 11 140 5 0 41 -5 80 -11 l69 -12 0 -208 0 -209 80 0 80 0 0 195 0 196 33 -6 c17 -3 52 -9 77 -13 l45 -8 3 -102 3 -102 79 0 80 0 0 89 0 88 48 -8 c26 -5 62 -11 80 -14 l32 -6 0 406 0 405 80 0 80 0 0 840 c0 698 2 840 13 840 15 0 552 -76 599 -84 l28 -5 0 1124 0 1125 -2480 0 -2480 0 0 -1120z m320 240 l0 -720 800 0 800 0 0 720 0 720 80 0 80 0 0 -800 0 -800 -960 0 -960 0 0 800 0 800 80 0 80 0 0 -720z m480 560 l0 -160 -160 0 -160 0 0 160 0 160 160 0 160 0 0 -160z m480 0 l0 -160 -160 0 -160 0 0 160 0 160 160 0 160 0 0 -160z m480 0 l0 -160 -160 0 -160 0 0 160 0 160 160 0 160 0 0 -160z m1120 -368 l0 -529 80 -106 80 -106 0 -566 0 -565 -560 0 c-308 0 -560 2 -560 5 0 3 20 31 43 64 44 59 77 130 97 209 l11 42 84 0 85 0 0 1040 0 1040 320 0 320 0 0 -528z m960 48 l0 -480 -400 0 -400 0 0 480 0 480 400 0 400 0 0 -480z m960 -476 l0 -957 -32 6 c-18 2 -234 33 -480 68 l-448 64 0 253 0 253 80 106 80 106 0 529 0 528 400 0 400 0 0 -956z m-4000 316 l0 -160 -160 0 -160 0 0 160 0 160 160 0 160 0 0 -160z m480 0 l0 -160 -160 0 -160 0 0 160 0 160 160 0 160 0 0 -160z m480 0 l0 -160 -160 0 -160 0 0 160 0 160 160 0 160 0 0 -160z m-960 -480 l0 -160 -160 0 -160 0 0 160 0 160 160 0 160 0 0 -160z m480 0 l0 -160 -160 0 -160 0 0 160 0 160 160 0 160 0 0 -160z m480 0 l0 -160 -160 0 -160 0 0 160 0 160 160 0 160 0 0 -160z m2000 -5 c0 -11 -312 -420 -320 -420 -8 0 -320 409 -320 420 0 3 144 5 320 5 176 0 320 -2 320 -5z m-440 -520 c63 -85 117 -154 120 -154 3 0 57 69 120 155 l115 155 3 -209 2 -208 240 -33 240 -34 0 -774 0 -773 -560 0 -560 0 0 320 0 320 80 0 80 0 0 695 c0 382 1 695 3 695 1 0 54 -70 117 -155z m-1240 -195 l0 -80 -960 0 -960 0 0 80 0 80 960 0 960 0 0 -80z m-170 -270 c-30 -104 -117 -208 -215 -256 l-60 -29 -515 0 -515 0 -58 29 c-99 48 -187 152 -217 256 l-9 30 799 0 799 0 -9 -30z m10 -770 l160 0 0 -480 0 -480 -720 0 -720 0 0 643 0 642 417 -3 c439 -4 565 3 650 37 l48 19 3 -189 2 -189 160 0z m1120 240 l0 -80 -560 0 -560 0 0 80 0 80 560 0 560 0 0 -80z m960 -1356 l0 -316 -22 5 c-13 3 -193 33 -400 68 l-378 62 0 249 0 248 400 0 400 0 0 -316z m-2240 -164 l0 -160 -400 0 -400 0 0 160 0 160 400 0 400 0 0 -160z m-160 -400 l0 -80 -240 0 -240 0 0 80 0 80 240 0 240 0 0 -80z"></path><path id="pSZpPyCl5" d="M2480 4640 l0 -80 80 0 80 0 0 80 0 80 -80 0 -80 0 0 -80z"></path><path id="pZ6pEBWpj" d="M2480 4320 l0 -80 80 0 80 0 0 80 0 80 -80 0 -80 0 0 -80z"></path><path id="pr3oyYNfM" d="M2480 4000 l0 -80 80 0 80 0 0 80 0 80 -80 0 -80 0 0 -80z"></path><path id="pXKgWVJd" d="M2480 3680 l0 -80 80 0 80 0 0 80 0 80 -80 0 -80 0 0 -80z"></path><path id="pSYPXV89D" d="M2480 3360 l0 -80 80 0 80 0 0 80 0 80 -80 0 -80 0 0 -80z"></path><path id="p1FKzvwACN" d="M2800 3360 l0 -80 80 0 80 0 0 80 0 80 -80 0 -80 0 0 -80z"></path><path id="pLGyzkNPd" d="M2480 3040 l0 -80 80 0 80 0 0 80 0 80 -80 0 -80 0 0 -80z"></path><path id="pAIXSJu7i" d="M2800 3040 l0 -80 80 0 80 0 0 80 0 80 -80 0 -80 0 0 -80z"></path><path id="pptw9PKRH" d="M2480 2720 l0 -80 80 0 80 0 0 80 0 80 -80 0 -80 0 0 -80z"></path><path id="pbwzbib22" d="M2800 2720 l0 -80 80 0 80 0 0 80 0 80 -80 0 -80 0 0 -80z"></path><path id="p153Vi1CEc" d="M3280 4400 l0 -320 80 0 80 0 0 320 0 320 -80 0 -80 0 0 -320z"></path><path id="pTWrrs78S" d="M3600 4400 l0 -320 80 0 80 0 0 320 0 320 -80 0 -80 0 0 -320z"></path><path id="pvMowqhPk" d="M4240 4640 l0 -80 80 0 80 0 0 80 0 80 -80 0 -80 0 0 -80z"></path><path id="pniCxNaEm" d="M4560 4640 l0 -80 80 0 80 0 0 80 0 80 -80 0 -80 0 0 -80z"></path><path id="pG122E6dW" d="M4240 4320 l0 -80 80 0 80 0 0 80 0 80 -80 0 -80 0 0 -80z"></path><path id="pF4J532HR" d="M4560 4320 l0 -80 80 0 80 0 0 80 0 80 -80 0 -80 0 0 -80z"></path><path id="p1RSO6xXy" d="M4240 4000 l0 -80 80 0 80 0 0 80 0 80 -80 0 -80 0 0 -80z"></path><path id="pPvGrGrkj" d="M4560 4000 l0 -80 80 0 80 0 0 80 0 80 -80 0 -80 0 0 -80z"></path><path id="plZa3gMbm" d="M4240 3680 l0 -80 80 0 80 0 0 80 0 80 -80 0 -80 0 0 -80z"></path><path id="pqz3xeNST" d="M4560 3680 l0 -80 80 0 80 0 0 80 0 80 -80 0 -80 0 0 -80z"></path><path id="ppAzopraL" d="M4240 3360 l0 -80 80 0 80 0 0 80 0 80 -80 0 -80 0 0 -80z"></path><path id="pxvGw6KbG" d="M4560 3360 l0 -80 80 0 80 0 0 80 0 80 -80 0 -80 0 0 -80z"></path><path id="pw6Oj1ldX" d="M3600 2880 l0 -80 80 0 80 0 0 80 0 80 -80 0 -80 0 0 -80z"></path><path id="p1AxiDa7vO" d="M3600 2560 l0 -80 80 0 80 0 0 80 0 80 -80 0 -80 0 0 -80z"></path><path id="p1azoBE1F" d="M3920 2560 l0 -80 80 0 80 0 0 80 0 80 -80 0 -80 0 0 -80z"></path><path id="pOr2r687t" d="M3600 2240 l0 -80 80 0 80 0 0 80 0 80 -80 0 -80 0 0 -80z"></path><path id="pJBfneO1k" d="M3920 2240 l0 -80 80 0 80 0 0 80 0 80 -80 0 -80 0 0 -80z"></path><path id="ppCCkIKy0" d="M3280 1920 l0 -80 80 0 80 0 0 80 0 80 -80 0 -80 0 0 -80z"></path><path id="pnnwAMlG3" d="M3600 1920 l0 -80 80 0 80 0 0 80 0 80 -80 0 -80 0 0 -80z"></path><path id="pVo0sUWVO" d="M3920 1920 l0 -80 80 0 80 0 0 80 0 80 -80 0 -80 0 0 -80z"></path><path id="p179zeSwQM" d="M3280 1600 l0 -80 80 0 80 0 0 80 0 80 -80 0 -80 0 0 -80z"></path><path id="pi6jw8uKL" d="M3600 1600 l0 -80 80 0 80 0 0 80 0 80 -80 0 -80 0 0 -80z"></path><path id="plZ4foHke" d="M3920 1600 l0 -80 80 0 80 0 0 80 0 80 -80 0 -80 0 0 -80z"></path><path id="ph1oC0wDf" d="M880 1920 l0 -80 80 0 80 0 0 80 0 80 -80 0 -80 0 0 -80z"></path><path id="pd9eDJd8A" d="M1200 1920 l0 -80 80 0 80 0 0 80 0 80 -80 0 -80 0 0 -80z"></path><path id="p1HWQ8bgER" d="M1520 1920 l0 -80 80 0 80 0 0 80 0 80 -80 0 -80 0 0 -80z"></path><path id="p1BPL9t5Wk" d="M880 1600 l0 -80 80 0 80 0 0 80 0 80 -80 0 -80 0 0 -80z"></path><path id="p1EHekbGHE" d="M1200 1600 l0 -80 80 0 80 0 0 80 0 80 -80 0 -80 0 0 -80z"></path><path id="p19OlR7dYP" d="M1520 1600 l0 -80 80 0 80 0 0 80 0 80 -80 0 -80 0 0 -80z"></path><path id="p18m58dHgg" d="M1840 1600 l0 -80 80 0 80 0 0 80 0 80 -80 0 -80 0 0 -80z"></path><path id="p2bFoiznc" d="M880 1280 l0 -80 80 0 80 0 0 80 0 80 -80 0 -80 0 0 -80z"></path><path id="p156esoeG3" d="M1200 1280 l0 -80 80 0 80 0 0 80 0 80 -80 0 -80 0 0 -80z"></path><path id="plXjBr6dh" d="M1520 1280 l0 -80 80 0 80 0 0 80 0 80 -80 0 -80 0 0 -80z"></path><path id="p10oA2cfuB" d="M1840 1280 l0 -80 80 0 80 0 0 80 0 80 -80 0 -80 0 0 -80z"></path></g></g></svg>
